<svg width="1920" height="212" viewBox="0 0 1920 212" fill="none" xmlns="http://www.w3.org/2000/svg">
<g clip-path="url(#clip0_22_490)">
<rect width="1993.94" height="41.1307" transform="translate(-43.0996 170.281) rotate(-4.8824)" fill="#FF002D"/>
<path d="M406.166 163.939L400.965 164.383L399.066 142.144L403.878 141.733C406.897 141.475 408.813 142.756 409.035 145.357L409.283 148.256C409.411 149.751 408.982 151.082 407.571 151.835L407.574 151.865C409.341 152.105 410.26 153.352 410.418 155.205L410.738 158.941C410.978 161.751 409.574 163.647 406.166 163.939ZM403.167 145.045L403.673 150.964L404.51 150.892C405.556 150.803 405.899 150.232 405.807 149.155L405.562 146.286C405.477 145.3 405.021 144.887 404.004 144.974L403.167 145.045ZM403.938 154.072L404.518 160.858L405.445 160.778C406.521 160.687 406.956 160.138 406.859 159.002L406.56 155.504C406.46 154.339 405.911 153.904 404.835 153.996L403.938 154.072ZM419.845 162.77L411.774 163.46L409.874 141.221L413.79 140.886L415.388 159.598L419.543 159.243L419.845 162.77ZM431.636 161.763L427.66 162.102L426.86 158.377L423.542 158.66L423.386 162.468L419.38 162.81L420.918 140.277L426.299 139.818L431.636 161.763ZM424.012 147.239L423.68 155.337L426.161 155.125L424.46 147.201L424.057 144.947L423.997 144.952L424.012 147.239ZM436.607 161.73C433.14 162.026 431.17 160.117 430.825 156.081L429.906 145.32C429.559 141.255 431.117 139.045 434.644 138.743C438.32 138.429 440.093 140.506 440.413 144.242L440.676 147.321L436.76 147.656L436.464 144.188C436.356 142.933 436.018 142.149 434.942 142.241C434.105 142.312 433.618 142.956 433.744 144.421L434.755 156.257C434.88 157.722 435.471 158.304 436.308 158.232C437.235 158.153 437.6 157.49 437.48 156.085L437.148 152.199L441.064 151.865L441.36 155.332C441.679 159.068 440.403 161.405 436.607 161.73ZM446.452 160.497L442.536 160.832L440.636 138.593L444.552 138.258L445.331 147.375L446.108 147.309L447.212 138.031L451.367 137.676L449.385 148.655L449.395 148.774L453.596 159.887L449.411 160.245L446.397 150.686L445.619 150.753L446.452 160.497ZM462.319 159.142L458.403 159.476L456.503 137.237L464.813 136.528L465.112 140.025L460.718 140.4L461.244 146.558L465.1 146.228L465.396 149.696L461.54 150.025L462.319 159.142ZM471.026 158.398L467.11 158.733L465.21 136.494L470.441 136.047C473.819 135.758 475.666 137.287 475.921 140.276L476.227 143.863C476.391 145.776 475.731 147.217 474.16 147.863L474.163 147.893C475.81 148.144 476.501 149.53 476.737 151.587L477.128 155.107C477.255 156.24 477.458 157.216 477.721 157.826L473.835 158.158C473.667 157.6 473.416 156.418 473.226 154.898L472.835 151.379C472.683 150.308 472.161 149.84 471.115 149.93L470.308 149.999L471.026 158.398ZM469.409 139.477L470.045 146.92L471.032 146.836C471.928 146.759 472.518 146.257 472.393 144.792L472.071 141.026C471.966 139.801 471.442 139.303 470.515 139.383L469.409 139.477ZM481.922 157.467L478.006 157.802L476.106 135.563L480.022 135.228L481.922 157.467ZM488.207 156.931L483.006 157.375L481.106 135.136L486.307 134.692C489.924 134.383 491.725 136.427 492.105 140.881L492.874 149.878C493.252 154.302 491.824 156.622 488.207 156.931ZM485.313 138.209L486.633 153.663L487.5 153.589C488.636 153.492 489.21 152.81 489.041 150.837L488.163 140.555C487.995 138.582 487.316 138.038 486.18 138.135L485.313 138.209ZM505.378 155.464L501.403 155.803L500.603 152.078L497.285 152.361L497.128 156.168L493.123 156.511L494.661 133.978L500.041 133.518L505.378 155.464ZM497.754 140.94L497.422 149.038L499.903 148.826L498.203 140.902L497.8 138.648L497.74 138.653L497.754 140.94ZM510.679 155.011L506.763 155.345L506.235 149.158L501.127 133.426L505.192 133.078L507.547 143.024L507.731 144.122L507.791 144.117L507.816 143.001L508.45 132.8L512.486 132.455L510.15 148.824L510.679 155.011Z" fill="white"/>
<path d="M810.615 129.391L805.414 129.835L803.515 107.596L808.327 107.185C811.346 106.927 813.262 108.209 813.484 110.809L813.732 113.709C813.86 115.203 813.431 116.534 812.02 117.287L812.023 117.317C813.79 117.558 814.709 118.804 814.868 120.657L815.187 124.393C815.427 127.203 814.023 129.1 810.615 129.391ZM807.617 110.497L808.122 116.416L808.959 116.344C810.005 116.255 810.348 115.684 810.256 114.608L810.011 111.738C809.927 110.752 809.47 110.339 808.454 110.426L807.617 110.497ZM808.388 119.524L808.967 126.31L809.894 126.231C810.97 126.139 811.405 125.59 811.308 124.454L811.009 120.957C810.91 119.791 810.361 119.356 809.284 119.448L808.388 119.524ZM824.294 128.222L816.223 128.912L814.323 106.673L818.239 106.338L819.838 125.05L823.992 124.695L824.294 128.222ZM836.085 127.215L832.11 127.555L831.31 123.829L827.992 124.113L827.835 127.92L823.83 128.262L825.368 105.729L830.748 105.27L836.085 127.215ZM828.461 112.691L828.129 120.789L830.61 120.577L828.91 112.653L828.506 110.399L828.447 110.404L828.461 112.691ZM841.056 127.182C837.589 127.478 835.619 125.569 835.275 121.533L834.355 110.773C834.008 106.707 835.566 104.497 839.093 104.196C842.769 103.881 844.543 105.958 844.862 109.694L845.125 112.773L841.209 113.108L840.913 109.64C840.806 108.385 840.468 107.601 839.392 107.693C838.555 107.764 838.068 108.408 838.193 109.873L839.204 121.71C839.329 123.174 839.921 123.756 840.758 123.685C841.684 123.605 842.049 122.942 841.929 121.537L841.597 117.651L845.513 117.317L845.809 120.784C846.128 124.52 844.853 126.858 841.056 127.182ZM850.901 125.949L846.985 126.284L845.086 104.045L849.001 103.71L849.78 112.827L850.557 112.761L851.662 103.483L855.817 103.128L853.834 114.107L853.844 114.226L858.045 125.339L853.86 125.697L850.846 116.139L850.069 116.205L850.901 125.949ZM866.768 124.594L862.852 124.929L860.952 102.69L869.262 101.98L869.561 105.477L865.167 105.852L865.693 112.01L869.549 111.681L869.845 115.148L865.989 115.477L866.768 124.594ZM875.475 123.85L871.559 124.185L869.659 101.946L874.89 101.499C878.268 101.21 880.115 102.739 880.37 105.728L880.677 109.315C880.84 111.228 880.18 112.669 878.61 113.315L878.612 113.345C880.259 113.596 880.95 114.982 881.186 117.04L881.577 120.559C881.704 121.692 881.908 122.669 882.17 123.278L878.285 123.61C878.117 123.053 877.865 121.87 877.675 120.35L877.284 116.831C877.132 115.76 876.611 115.293 875.564 115.382L874.757 115.451L875.475 123.85ZM873.859 104.929L874.494 112.372L875.481 112.288C876.378 112.211 876.967 111.709 876.842 110.245L876.52 106.478C876.415 105.253 875.891 104.756 874.965 104.835L873.859 104.929ZM886.371 122.92L882.455 123.254L880.556 101.015L884.471 100.681L886.371 122.92ZM892.656 122.383L887.455 122.827L885.555 100.588L890.757 100.144C894.373 99.8347 896.174 101.879 896.554 106.333L897.323 115.33C897.701 119.754 896.273 122.074 892.656 122.383ZM889.762 103.661L891.082 119.115L891.949 119.041C893.085 118.944 893.659 118.262 893.491 116.29L892.612 106.007C892.444 104.034 891.765 103.49 890.629 103.587L889.762 103.661ZM909.827 120.916L905.852 121.255L905.052 117.53L901.734 117.813L901.578 121.621L897.572 121.963L899.11 99.4301L904.49 98.9705L909.827 120.916ZM902.204 106.392L901.872 114.49L904.353 114.278L902.652 106.354L902.249 104.1L902.189 104.105L902.204 106.392ZM915.128 120.463L911.212 120.798L910.684 114.61L905.576 98.8778L909.641 98.5305L911.996 108.476L912.181 109.574L912.24 109.569L912.265 108.453L912.9 98.2522L916.935 97.9075L914.599 114.276L915.128 120.463Z" fill="white"/>
<path d="M1215.03 94.8446L1209.83 95.2889L1207.93 73.0499L1212.74 72.6388C1215.76 72.3809 1217.68 73.6625 1217.9 76.263L1218.15 79.1624C1218.28 80.657 1217.85 81.9883 1216.44 82.7411L1216.44 82.771C1218.21 83.0115 1219.13 84.2578 1219.28 86.111L1219.6 89.8474C1219.84 92.6572 1218.44 94.5535 1215.03 94.8446ZM1212.03 75.9513L1212.54 81.8697L1213.38 81.7982C1214.42 81.7089 1214.76 81.1376 1214.67 80.0616L1214.43 77.192C1214.34 76.2056 1213.89 75.793 1212.87 75.8798L1212.03 75.9513ZM1212.8 84.9784L1213.38 91.7637L1214.31 91.6845C1215.39 91.5926 1215.82 91.0436 1215.72 89.9078L1215.43 86.4105C1215.33 85.2447 1214.78 84.8099 1213.7 84.9018L1212.8 84.9784ZM1228.71 93.6762L1220.64 94.3656L1218.74 72.1266L1222.66 71.7921L1224.25 90.504L1228.41 90.149L1228.71 93.6762ZM1240.5 92.669L1236.53 93.0086L1235.73 89.2831L1232.41 89.5665L1232.25 93.3737L1228.25 93.7158L1229.78 71.1832L1235.16 70.7236L1240.5 92.669ZM1232.88 78.1451L1232.55 86.2428L1235.03 86.0308L1233.33 78.1068L1232.92 75.853L1232.86 75.8581L1232.88 78.1451ZM1245.47 92.6357C1242.01 92.9319 1240.04 91.0226 1239.69 86.9873L1238.77 76.2265C1238.43 72.1613 1239.98 69.9507 1243.51 69.6494C1247.19 69.3354 1248.96 71.412 1249.28 75.1484L1249.54 78.2272L1245.63 78.5617L1245.33 75.0943C1245.22 73.8389 1244.88 73.0548 1243.81 73.1467C1242.97 73.2182 1242.48 73.862 1242.61 75.3266L1243.62 87.1635C1243.75 88.6282 1244.34 89.21 1245.17 89.1385C1246.1 89.0593 1246.47 88.3959 1246.35 86.991L1246.01 83.1051L1249.93 82.7706L1250.23 86.238C1250.55 89.9744 1249.27 92.3115 1245.47 92.6357ZM1255.32 91.4034L1251.4 91.7379L1249.5 69.4988L1253.42 69.1644L1254.2 78.2812L1254.97 78.2148L1256.08 68.9371L1260.23 68.5822L1258.25 79.5608L1258.26 79.6804L1262.46 90.7931L1258.28 91.1506L1255.26 81.5925L1254.49 81.6589L1255.32 91.4034ZM1271.18 90.048L1267.27 90.3825L1265.37 68.1435L1273.68 67.4337L1273.98 70.9309L1269.58 71.3063L1270.11 77.4638L1273.97 77.1345L1274.26 80.6018L1270.41 80.9312L1271.18 90.048ZM1279.89 89.3043L1275.98 89.6387L1274.08 67.3997L1279.31 66.9529C1282.69 66.6644 1284.53 68.1927 1284.79 71.1819L1285.09 74.7688C1285.26 76.6818 1284.6 78.1232 1283.03 78.7692L1283.03 78.7991C1284.68 79.0498 1285.37 80.4361 1285.6 82.4935L1285.99 86.013C1286.12 87.1463 1286.32 88.1225 1286.59 88.7323L1282.7 89.0643C1282.53 88.5065 1282.28 87.3237 1282.09 85.8043L1281.7 82.2848C1281.55 81.2138 1281.03 80.7465 1279.98 80.8359L1279.17 80.9049L1279.89 89.3043ZM1278.28 70.3832L1278.91 77.8261L1279.9 77.7418C1280.79 77.6652 1281.38 77.1632 1281.26 75.6986L1280.94 71.9323C1280.83 70.7067 1280.31 70.2095 1279.38 70.2887L1278.28 70.3832ZM1290.79 88.3735L1286.87 88.708L1284.97 66.469L1288.89 66.1345L1290.79 88.3735ZM1297.07 87.8366L1291.87 88.2809L1289.97 66.0419L1295.17 65.5976C1298.79 65.2887 1300.59 67.3328 1300.97 71.7866L1301.74 80.7838C1302.12 85.2077 1300.69 87.5277 1297.07 87.8366ZM1294.18 69.115L1295.5 84.5687L1296.37 84.4947C1297.5 84.3976 1298.08 83.7163 1297.91 81.7435L1297.03 71.4609C1296.86 69.4881 1296.18 68.9439 1295.05 69.0409L1294.18 69.115ZM1314.24 86.3698L1310.27 86.7094L1309.47 82.984L1306.15 83.2674L1305.99 87.0746L1301.99 87.4167L1303.53 64.8841L1308.91 64.4245L1314.24 86.3698ZM1306.62 71.846L1306.29 79.9436L1308.77 79.7317L1307.07 71.8077L1306.67 69.5538L1306.61 69.559L1306.62 71.846ZM1319.55 85.9171L1315.63 86.2515L1315.1 80.0641L1309.99 64.3317L1314.06 63.9844L1316.41 73.9301L1316.6 75.0284L1316.66 75.0233L1316.68 73.9071L1317.32 63.7061L1321.35 63.3614L1319.02 79.7296L1319.55 85.9171Z" fill="white"/>
<path d="M1617.76 60.088L1612.56 60.5323L1610.66 38.2933L1615.47 37.8822C1618.49 37.6243 1620.41 38.9059 1620.63 41.5064L1620.88 44.4059C1621 45.9004 1620.58 47.2317 1619.16 47.9845L1619.17 48.0144C1620.93 48.2549 1621.85 49.5012 1622.01 51.3544L1622.33 55.0908C1622.57 57.9006 1621.17 59.7969 1617.76 60.088ZM1614.76 41.1947L1615.27 47.1132L1616.1 47.0417C1617.15 46.9523 1617.49 46.3811 1617.4 45.305L1617.15 42.4354C1617.07 41.449 1616.61 41.0364 1615.6 41.1232L1614.76 41.1947ZM1615.53 50.2218L1616.11 57.0071L1617.04 56.928C1618.11 56.8361 1618.55 56.287 1618.45 55.1512L1618.15 51.6539C1618.05 50.4882 1617.5 50.0533 1616.43 50.1452L1615.53 50.2218ZM1631.44 58.9196L1623.37 59.609L1621.47 37.37L1625.38 37.0355L1626.98 55.7474L1631.14 55.3925L1631.44 58.9196ZM1643.23 57.9124L1639.25 58.252L1638.45 54.5266L1635.14 54.81L1634.98 58.6171L1630.97 58.9593L1632.51 36.4266L1637.89 35.967L1643.23 57.9124ZM1635.6 43.3886L1635.27 51.4862L1637.75 51.2743L1636.05 43.3503L1635.65 41.0964L1635.59 41.1015L1635.6 43.3886ZM1648.2 57.8792C1644.73 58.1753 1642.76 56.2661 1642.42 52.2307L1641.5 41.4699C1641.15 37.4047 1642.71 35.1942 1646.24 34.8929C1649.91 34.5788 1651.69 36.6554 1652.01 40.3918L1652.27 43.4706L1648.35 43.8051L1648.06 40.3377C1647.95 39.0823 1647.61 38.2982 1646.54 38.3901C1645.7 38.4616 1645.21 39.1054 1645.34 40.5701L1646.35 52.407C1646.47 53.8716 1647.06 54.4534 1647.9 54.3819C1648.83 54.3027 1649.19 53.6393 1649.07 52.2344L1648.74 48.3485L1652.66 48.0141L1652.95 51.4814C1653.27 55.2178 1652 57.5549 1648.2 57.8792ZM1658.04 56.6468L1654.13 56.9813L1652.23 34.7423L1656.14 34.4078L1656.92 43.5246L1657.7 43.4582L1658.81 34.1805L1662.96 33.8256L1660.98 44.8042L1660.99 44.9238L1665.19 56.0366L1661 56.394L1657.99 46.8359L1657.21 46.9023L1658.04 56.6468ZM1673.91 55.2914L1670 55.6259L1668.1 33.3869L1676.41 32.6771L1676.7 36.1744L1672.31 36.5497L1672.84 42.7073L1676.69 42.3779L1676.99 45.8453L1673.13 46.1746L1673.91 55.2914ZM1682.62 54.5477L1678.7 54.8822L1676.8 32.6432L1682.03 32.1963C1685.41 31.9078 1687.26 33.4362 1687.51 36.4253L1687.82 40.0122C1687.98 41.9253 1687.32 43.3666 1685.75 44.0127L1685.76 44.0426C1687.4 44.2933 1688.09 45.6795 1688.33 47.7369L1688.72 51.2564C1688.85 52.3897 1689.05 53.3659 1689.31 53.9757L1685.43 54.3077C1685.26 53.75 1685.01 52.5671 1684.82 51.0477L1684.43 47.5282C1684.28 46.4573 1683.75 45.99 1682.71 46.0793L1681.9 46.1483L1682.62 54.5477ZM1681 35.6266L1681.64 43.0695L1682.62 42.9852C1683.52 42.9086 1684.11 42.4066 1683.99 40.942L1683.66 37.1757C1683.56 35.9502 1683.03 35.453 1682.11 35.5321L1681 35.6266ZM1693.51 53.6169L1689.6 53.9514L1687.7 31.7124L1691.61 31.3779L1693.51 53.6169ZM1699.8 53.08L1694.6 53.5243L1692.7 31.2853L1697.9 30.841C1701.52 30.5321 1703.32 32.5763 1703.7 37.03L1704.47 46.0273C1704.84 50.4512 1703.42 52.7711 1699.8 53.08ZM1696.91 34.3584L1698.23 49.8121L1699.09 49.7381C1700.23 49.6411 1700.8 48.9597 1700.63 46.9869L1699.76 36.7044C1699.59 34.7315 1698.91 34.1873 1697.77 34.2844L1696.91 34.3584ZM1716.97 51.6133L1713 51.9528L1712.2 48.2274L1708.88 48.5108L1708.72 52.318L1704.72 52.6601L1706.25 30.1275L1711.63 29.6679L1716.97 51.6133ZM1709.35 37.0894L1709.02 45.1871L1711.5 44.9751L1709.8 37.0511L1709.39 34.7973L1709.33 34.8024L1709.35 37.0894ZM1722.27 51.1605L1718.36 51.495L1717.83 45.3075L1712.72 29.5751L1716.78 29.2279L1719.14 39.1735L1719.32 40.2718L1719.38 40.2667L1719.41 39.1505L1720.04 28.9496L1724.08 28.6049L1721.74 44.973L1722.27 51.1605Z" fill="white"/>
<path d="M540.677 152.448L535.476 152.892L533.576 130.653L538.389 130.242C541.408 129.984 543.324 131.266 543.546 133.867L543.794 136.766C543.921 138.261 543.493 139.592 542.082 140.345L542.085 140.375C543.851 140.615 544.771 141.861 544.929 143.715L545.248 147.451C545.488 150.261 544.085 152.157 540.677 152.448ZM537.678 133.555L538.184 139.473L539.021 139.402C540.067 139.312 540.409 138.741 540.318 137.665L540.072 134.796C539.988 133.809 539.531 133.397 538.515 133.483L537.678 133.555ZM538.449 142.582L539.029 149.367L539.955 149.288C541.032 149.196 541.466 148.647 541.369 147.511L541.071 144.014C540.971 142.848 540.422 142.413 539.346 142.505L538.449 142.582ZM554.355 151.28L546.285 151.969L544.385 129.73L548.301 129.396L549.899 148.108L554.054 147.753L554.355 151.28ZM566.147 150.273L562.171 150.612L561.371 146.887L558.053 147.17L557.897 150.977L553.891 151.319L555.429 128.787L560.809 128.327L566.147 150.273ZM558.523 135.749L558.191 143.846L560.672 143.634L558.971 135.71L558.568 133.457L558.508 133.462L558.523 135.749ZM571.118 150.239C567.651 150.536 565.681 148.626 565.336 144.591L564.417 133.83C564.07 129.765 565.627 127.554 569.154 127.253C572.831 126.939 574.604 129.016 574.923 132.752L575.186 135.831L571.271 136.165L570.974 132.698C570.867 131.442 570.529 130.658 569.453 130.75C568.616 130.822 568.129 131.466 568.254 132.93L569.265 144.767C569.391 146.232 569.982 146.814 570.819 146.742C571.746 146.663 572.111 145.999 571.991 144.595L571.659 140.709L575.574 140.374L575.871 143.842C576.19 147.578 574.914 149.915 571.118 150.239ZM580.963 149.007L577.047 149.341L575.147 127.102L579.063 126.768L579.842 135.885L580.619 135.818L581.723 126.541L585.878 126.186L583.895 137.164L583.905 137.284L588.107 148.397L583.922 148.754L580.907 139.196L580.13 139.262L580.963 149.007ZM596.829 147.652L592.914 147.986L591.014 125.747L599.324 125.037L599.622 128.535L595.228 128.91L595.754 135.067L599.61 134.738L599.907 138.205L596.051 138.535L596.829 147.652ZM605.536 146.908L601.621 147.242L599.721 125.003L604.952 124.557C608.33 124.268 610.176 125.796 610.432 128.785L610.738 132.372C610.902 134.285 610.242 135.727 608.671 136.373L608.674 136.403C610.321 136.653 611.011 138.04 611.247 140.097L611.638 143.617C611.765 144.75 611.969 145.726 612.232 146.336L608.346 146.668C608.178 146.11 607.926 144.927 607.736 143.408L607.345 139.888C607.194 138.817 606.672 138.35 605.626 138.44L604.819 138.508L605.536 146.908ZM603.92 127.987L604.556 135.43L605.542 135.345C606.439 135.269 607.028 134.767 606.903 133.302L606.582 129.536C606.477 128.31 605.953 127.813 605.026 127.892L603.92 127.987ZM616.433 145.977L612.517 146.312L610.617 124.073L614.533 123.738L616.433 145.977ZM622.718 145.44L617.517 145.885L615.617 123.645L620.818 123.201C624.435 122.892 626.235 124.936 626.616 129.39L627.384 138.387C627.762 142.811 626.335 145.131 622.718 145.44ZM619.824 126.719L621.144 142.172L622.011 142.098C623.147 142.001 623.721 141.32 623.552 139.347L622.674 129.065C622.505 127.092 621.826 126.548 620.691 126.645L619.824 126.719ZM639.889 143.973L635.913 144.313L635.113 140.588L631.796 140.871L631.639 144.678L627.634 145.02L629.171 122.488L634.552 122.028L639.889 143.973ZM632.265 129.45L631.933 137.547L634.414 137.335L632.714 129.411L632.31 127.157L632.25 127.163L632.265 129.45ZM645.19 143.521L641.274 143.855L640.745 137.668L635.638 121.935L639.703 121.588L642.058 131.534L642.242 132.632L642.302 132.627L642.327 131.511L642.961 121.31L646.996 120.965L644.661 137.333L645.19 143.521Z" fill="white"/>
<path d="M945.126 117.9L939.925 118.345L938.026 96.1056L942.838 95.6945C945.857 95.4366 947.773 96.7182 947.995 99.3187L948.243 102.218C948.37 103.713 947.942 105.044 946.531 105.797L946.534 105.827C948.301 106.067 949.22 107.313 949.378 109.167L949.698 112.903C949.938 115.713 948.534 117.609 945.126 117.9ZM942.127 99.007L942.633 104.925L943.47 104.854C944.516 104.765 944.859 104.193 944.767 103.117L944.522 100.248C944.437 99.2613 943.981 98.8487 942.964 98.9355L942.127 99.007ZM942.898 108.034L943.478 114.819L944.405 114.74C945.481 114.648 945.916 114.099 945.819 112.963L945.52 109.466C945.42 108.3 944.871 107.866 943.795 107.958L942.898 108.034ZM958.804 116.732L950.734 117.421L948.834 95.1823L952.75 94.8478L954.348 113.56L958.503 113.205L958.804 116.732ZM970.596 115.725L966.62 116.064L965.82 112.339L962.502 112.622L962.346 116.429L958.34 116.772L959.878 94.2389L965.259 93.7793L970.596 115.725ZM962.972 101.201L962.64 109.299L965.121 109.087L963.42 101.163L963.017 98.9087L962.957 98.9138L962.972 101.201ZM975.567 115.691C972.1 115.988 970.13 114.078 969.785 110.043L968.866 99.2822C968.519 95.217 970.076 93.0065 973.604 92.7052C977.28 92.3911 979.053 94.4677 979.373 98.2041L979.636 101.283L975.72 101.617L975.424 98.15C975.316 96.8946 974.978 96.1105 973.902 96.2024C973.065 96.2739 972.578 96.9177 972.704 98.3824L973.715 110.219C973.84 111.684 974.431 112.266 975.268 112.194C976.195 112.115 976.56 111.452 976.44 110.047L976.108 106.161L980.024 105.826L980.32 109.294C980.639 113.03 979.363 115.367 975.567 115.691ZM985.412 114.459L981.496 114.794L979.596 92.5546L983.512 92.2201L984.291 101.337L985.068 101.271L986.172 91.9928L990.327 91.6379L988.345 102.617L988.355 102.736L992.556 113.849L988.371 114.206L985.357 104.648L984.579 104.715L985.412 114.459ZM1001.28 113.104L997.363 113.438L995.463 91.1992L1003.77 90.4894L1004.07 93.9867L999.678 94.362L1000.2 100.52L1004.06 100.19L1004.36 103.658L1000.5 103.987L1001.28 113.104ZM1009.99 112.36L1006.07 112.694L1004.17 90.4555L1009.4 90.0086C1012.78 89.7201 1014.63 91.2485 1014.88 94.2376L1015.19 97.8245C1015.35 99.7376 1014.69 101.179 1013.12 101.825L1013.12 101.855C1014.77 102.106 1015.46 103.492 1015.7 105.549L1016.09 109.069C1016.21 110.202 1016.42 111.178 1016.68 111.788L1012.8 112.12C1012.63 111.562 1012.38 110.379 1012.19 108.86L1011.79 105.341C1011.64 104.27 1011.12 103.802 1010.08 103.892L1009.27 103.961L1009.99 112.36ZM1008.37 93.4389L1009.01 100.882L1009.99 100.798C1010.89 100.721 1011.48 100.219 1011.35 98.7543L1011.03 94.988C1010.93 93.7625 1010.4 93.2653 1009.48 93.3444L1008.37 93.4389ZM1020.88 111.429L1016.97 111.764L1015.07 89.5247L1018.98 89.1902L1020.88 111.429ZM1027.17 110.892L1021.97 111.337L1020.07 89.0976L1025.27 88.6533C1028.88 88.3444 1030.68 90.3886 1031.07 94.8423L1031.83 103.84C1032.21 108.263 1030.78 110.583 1027.17 110.892ZM1024.27 92.1707L1025.59 107.624L1026.46 107.55C1027.6 107.453 1028.17 106.772 1028 104.799L1027.12 94.5167C1026.95 92.5438 1026.28 91.9996 1025.14 92.0967L1024.27 92.1707ZM1044.34 109.426L1040.36 109.765L1039.56 106.04L1036.24 106.323L1036.09 110.13L1032.08 110.472L1033.62 87.9398L1039 87.4802L1044.34 109.426ZM1036.71 94.9017L1036.38 102.999L1038.86 102.787L1037.16 94.8634L1036.76 92.6096L1036.7 92.6147L1036.71 94.9017ZM1049.64 108.973L1045.72 109.307L1045.19 103.12L1040.09 87.3874L1044.15 87.0402L1046.51 96.9858L1046.69 98.0841L1046.75 98.079L1046.78 96.9628L1047.41 86.7619L1051.45 86.4172L1049.11 102.785L1049.64 108.973Z" fill="white"/>
<path d="M1349.54 83.3543L1344.34 83.7985L1342.44 61.5595L1347.25 61.1484C1350.27 60.8906 1352.19 62.1721 1352.41 64.7727L1352.66 67.6721C1352.79 69.1667 1352.36 70.4979 1350.95 71.2508L1350.95 71.2807C1352.72 71.5211 1353.64 72.7674 1353.8 74.6207L1354.11 78.3571C1354.35 81.1668 1352.95 83.0632 1349.54 83.3543ZM1346.54 64.4609L1347.05 70.3794L1347.89 70.3079C1348.93 70.2185 1349.28 69.6473 1349.18 68.5712L1348.94 65.7017C1348.85 64.7153 1348.4 64.3026 1347.38 64.3895L1346.54 64.4609ZM1347.32 73.4881L1347.9 80.2734L1348.82 80.1942C1349.9 80.1023 1350.33 79.5533 1350.24 78.4174L1349.94 74.9202C1349.84 73.7544 1349.29 73.3196 1348.21 73.4115L1347.32 73.4881ZM1363.22 82.1859L1355.15 82.8753L1353.25 60.6362L1357.17 60.3018L1358.77 79.0136L1362.92 78.6587L1363.22 82.1859ZM1375.01 81.1786L1371.04 81.5182L1370.24 77.7928L1366.92 78.0762L1366.76 81.8833L1362.76 82.2255L1364.3 59.6928L1369.68 59.2332L1375.01 81.1786ZM1367.39 66.6548L1367.06 74.7524L1369.54 74.5405L1367.84 66.6165L1367.43 64.3626L1367.37 64.3677L1367.39 66.6548ZM1379.98 81.1454C1376.52 81.4416 1374.55 79.5323 1374.2 75.497L1373.28 64.7362C1372.94 60.671 1374.49 58.4604 1378.02 58.1591C1381.7 57.845 1383.47 59.9217 1383.79 63.6581L1384.05 66.7368L1380.14 67.0713L1379.84 63.604C1379.73 62.3485 1379.4 61.5644 1378.32 61.6564C1377.48 61.7279 1377 62.3716 1377.12 63.8363L1378.13 75.6732C1378.26 77.1379 1378.85 77.7196 1379.69 77.6481C1380.61 77.569 1380.98 76.9055 1380.86 75.5006L1380.52 71.6148L1384.44 71.2803L1384.74 74.7477C1385.06 78.4841 1383.78 80.8211 1379.98 81.1454ZM1389.83 79.913L1385.91 80.2475L1384.01 58.0085L1387.93 57.674L1388.71 66.7908L1389.49 66.7244L1390.59 57.4468L1394.74 57.0919L1392.76 68.0705L1392.77 68.19L1396.97 79.3028L1392.79 79.6603L1389.77 70.1021L1389 70.1685L1389.83 79.913ZM1405.7 78.5577L1401.78 78.8922L1399.88 56.6532L1408.19 55.9433L1408.49 59.4406L1404.09 59.8159L1404.62 65.9735L1408.48 65.6441L1408.77 69.1115L1404.92 69.4409L1405.7 78.5577ZM1414.4 77.8139L1410.49 78.1484L1408.59 55.9094L1413.82 55.4626C1417.2 55.174 1419.04 56.7024 1419.3 59.6915L1419.6 63.2785C1419.77 65.1915 1419.11 66.6329 1417.54 67.2789L1417.54 67.3088C1419.19 67.5595 1419.88 68.9458 1420.11 71.0031L1420.5 74.5226C1420.63 75.6559 1420.84 76.6321 1421.1 77.242L1417.21 77.5739C1417.04 77.0162 1416.79 75.8333 1416.6 74.314L1416.21 70.7945C1416.06 69.7235 1415.54 69.2562 1414.49 69.3456L1413.69 69.4145L1414.4 77.8139ZM1412.79 58.8928L1413.42 66.3357L1414.41 66.2515C1415.31 66.1749 1415.89 65.6729 1415.77 64.2082L1415.45 60.4419C1415.34 59.2164 1414.82 58.7192 1413.89 58.7984L1412.79 58.8928ZM1425.3 76.8832L1421.38 77.2176L1419.48 54.9786L1423.4 54.6441L1425.3 76.8832ZM1431.58 76.3463L1426.38 76.7906L1424.48 54.5515L1429.68 54.1073C1433.3 53.7983 1435.1 55.8425 1435.48 60.2963L1436.25 69.2935C1436.63 73.7174 1435.2 76.0373 1431.58 76.3463ZM1428.69 57.6246L1430.01 73.0784L1430.88 73.0043C1432.01 72.9073 1432.59 72.226 1432.42 70.2531L1431.54 59.9706C1431.37 57.9978 1430.69 57.4536 1429.56 57.5506L1428.69 57.6246ZM1448.76 74.8795L1444.78 75.2191L1443.98 71.4937L1440.66 71.7771L1440.51 75.5842L1436.5 75.9264L1438.04 53.3937L1443.42 52.9341L1448.76 74.8795ZM1441.13 60.3557L1440.8 68.4533L1443.28 68.2414L1441.58 60.3174L1441.18 58.0635L1441.12 58.0686L1441.13 60.3557ZM1454.06 74.4267L1450.14 74.7612L1449.61 68.5737L1444.5 52.8414L1448.57 52.4941L1450.92 62.4398L1451.11 63.5381L1451.17 63.533L1451.19 62.4168L1451.83 52.2158L1455.86 51.8711L1453.53 68.2392L1454.06 74.4267Z" fill="white"/>
<path d="M1752.27 48.5977L1747.07 49.042L1745.17 26.8029L1749.98 26.3919C1753 26.134 1754.92 27.4156 1755.14 30.0161L1755.39 32.9155C1755.51 34.4101 1755.09 35.7414 1753.67 36.4942L1753.68 36.5241C1755.44 36.7646 1756.36 38.0108 1756.52 39.8641L1756.84 43.6005C1757.08 46.4103 1755.68 48.3066 1752.27 48.5977ZM1749.27 29.7044L1749.78 35.6228L1750.61 35.5513C1751.66 35.462 1752 34.8907 1751.91 33.8146L1751.67 30.9451C1751.58 29.9587 1751.12 29.5461 1750.11 29.6329L1749.27 29.7044ZM1750.04 38.7315L1750.62 45.5168L1751.55 45.4376C1752.62 45.3457 1753.06 44.7967 1752.96 43.6608L1752.66 40.1636C1752.56 38.9978 1752.01 38.563 1750.94 38.6549L1750.04 38.7315ZM1765.95 47.4293L1757.88 48.1187L1755.98 25.8797L1759.89 25.5452L1761.49 44.257L1765.65 43.9021L1765.95 47.4293ZM1777.74 46.4221L1773.76 46.7616L1772.96 43.0362L1769.65 43.3196L1769.49 47.1268L1765.48 47.4689L1767.02 24.9363L1772.4 24.4767L1777.74 46.4221ZM1770.12 31.8982L1769.78 39.9959L1772.26 39.7839L1770.56 31.8599L1770.16 29.6061L1770.1 29.6112L1770.12 31.8982ZM1782.71 46.3888C1779.24 46.685 1777.27 44.7757 1776.93 40.7404L1776.01 29.9796C1775.66 25.9144 1777.22 23.7038 1780.75 23.4025C1784.42 23.0885 1786.2 25.1651 1786.52 28.9015L1786.78 31.9803L1782.86 32.3148L1782.57 28.8474C1782.46 27.592 1782.12 26.8079 1781.05 26.8998C1780.21 26.9713 1779.72 27.6151 1779.85 29.0797L1780.86 40.9166C1780.98 42.3813 1781.57 42.963 1782.41 42.8916C1783.34 42.8124 1783.7 42.1489 1783.58 40.7441L1783.25 36.8582L1787.17 36.5237L1787.46 39.9911C1787.78 43.7275 1786.51 46.0645 1782.71 46.3888ZM1792.56 45.1565L1788.64 45.4909L1786.74 23.2519L1790.66 22.9174L1791.43 32.0342L1792.21 31.9679L1793.32 22.6902L1797.47 22.3353L1795.49 33.3139L1795.5 33.4334L1799.7 44.5462L1795.51 44.9037L1792.5 35.3456L1791.72 35.4119L1792.56 45.1565ZM1808.42 43.8011L1804.51 44.1356L1802.61 21.8966L1810.92 21.1868L1811.22 24.684L1806.82 25.0594L1807.35 31.2169L1811.2 30.8875L1811.5 34.3549L1807.64 34.6843L1808.42 43.8011ZM1817.13 43.0573L1813.21 43.3918L1811.31 21.1528L1816.54 20.706C1819.92 20.4175 1821.77 21.9458 1822.02 24.9349L1822.33 28.5219C1822.49 30.4349 1821.83 31.8763 1820.26 32.5223L1820.27 32.5522C1821.91 32.8029 1822.6 34.1892 1822.84 36.2466L1823.23 39.7661C1823.36 40.8994 1823.56 41.8756 1823.82 42.4854L1819.94 42.8173C1819.77 42.2596 1819.52 41.0767 1819.33 39.5574L1818.94 36.0379C1818.79 34.9669 1818.26 34.4996 1817.22 34.589L1816.41 34.6579L1817.13 43.0573ZM1815.51 24.1363L1816.15 31.5791L1817.14 31.4949C1818.03 31.4183 1818.62 30.9163 1818.5 29.4516L1818.17 25.6853C1818.07 24.4598 1817.55 23.9626 1816.62 24.0418L1815.51 24.1363ZM1828.03 42.1266L1824.11 42.4611L1822.21 20.2221L1826.13 19.8876L1828.03 42.1266ZM1834.31 41.5897L1829.11 42.034L1827.21 19.795L1832.41 19.3507C1836.03 19.0417 1837.83 21.0859 1838.21 25.5397L1838.98 34.5369C1839.36 38.9608 1837.93 41.2807 1834.31 41.5897ZM1831.42 22.8681L1832.74 38.3218L1833.6 38.2477C1834.74 38.1507 1835.31 37.4694 1835.14 35.4966L1834.27 25.214C1834.1 23.2412 1833.42 22.697 1832.28 22.794L1831.42 22.8681ZM1851.48 40.1229L1847.51 40.4625L1846.71 36.7371L1843.39 37.0205L1843.23 40.8276L1839.23 41.1698L1840.76 18.6371L1846.14 18.1775L1851.48 40.1229ZM1843.86 25.5991L1843.53 33.6967L1846.01 33.4848L1844.31 25.5608L1843.9 23.3069L1843.84 23.312L1843.86 25.5991ZM1856.78 39.6701L1852.87 40.0046L1852.34 33.8172L1847.23 18.0848L1851.3 17.7375L1853.65 27.6832L1853.83 28.7815L1853.89 28.7764L1853.92 27.6602L1854.55 17.4592L1858.59 17.1145L1856.25 33.4827L1856.78 39.6701Z" fill="white"/>
<path d="M675.187 140.958L669.986 141.402L668.086 119.163L672.899 118.752C675.918 118.494 677.834 119.776 678.056 122.376L678.303 125.276C678.431 126.77 678.003 128.102 676.592 128.854L676.594 128.884C678.361 129.125 679.281 130.371 679.439 132.224L679.758 135.961C679.998 138.77 678.594 140.667 675.187 140.958ZM672.188 122.065L672.693 127.983L673.53 127.911C674.577 127.822 674.919 127.251 674.827 126.175L674.582 123.305C674.498 122.319 674.041 121.906 673.025 121.993L672.188 122.065ZM672.959 131.092L673.539 137.877L674.465 137.798C675.541 137.706 675.976 137.157 675.879 136.021L675.58 132.524C675.481 131.358 674.932 130.923 673.856 131.015L672.959 131.092ZM688.865 139.789L680.794 140.479L678.895 118.24L682.81 117.905L684.409 136.617L688.564 136.262L688.865 139.789ZM700.656 138.782L696.681 139.122L695.881 135.396L692.563 135.68L692.406 139.487L688.401 139.829L689.939 117.296L695.319 116.837L700.656 138.782ZM693.033 124.258L692.701 132.356L695.182 132.144L693.481 124.22L693.078 121.966L693.018 121.971L693.033 124.258ZM705.628 138.749C702.16 139.045 700.191 137.136 699.846 133.101L698.927 122.34C698.58 118.275 700.137 116.064 703.664 115.763C707.341 115.449 709.114 117.525 709.433 121.262L709.696 124.34L705.78 124.675L705.484 121.208C705.377 119.952 705.039 119.168 703.963 119.26C703.126 119.331 702.639 119.975 702.764 121.44L703.775 133.277C703.9 134.741 704.492 135.323 705.329 135.252C706.256 135.173 706.62 134.509 706.5 133.104L706.168 129.218L710.084 128.884L710.38 132.351C710.7 136.088 709.424 138.425 705.628 138.749ZM715.472 137.517L711.557 137.851L709.657 115.612L713.573 115.278L714.351 124.394L715.129 124.328L716.233 115.05L720.388 114.695L718.405 125.674L718.415 125.794L722.616 136.906L718.432 137.264L715.417 127.706L714.64 127.772L715.472 137.517ZM731.339 136.161L727.423 136.496L725.524 114.257L733.833 113.547L734.132 117.044L729.738 117.42L730.264 123.577L734.12 123.248L734.416 126.715L730.56 127.044L731.339 136.161ZM740.046 135.418L736.13 135.752L734.231 113.513L739.462 113.066C742.839 112.778 744.686 114.306 744.941 117.295L745.248 120.882C745.411 122.795 744.752 124.236 743.181 124.882L743.183 124.912C744.831 125.163 745.521 126.549 745.757 128.607L746.148 132.126C746.275 133.26 746.479 134.236 746.742 134.846L742.856 135.178C742.688 134.62 742.436 133.437 742.246 131.918L741.855 128.398C741.704 127.327 741.182 126.86 740.136 126.949L739.329 127.018L740.046 135.418ZM738.43 116.496L739.066 123.939L740.052 123.855C740.949 123.778 741.538 123.276 741.413 121.812L741.091 118.046C740.987 116.82 740.462 116.323 739.536 116.402L738.43 116.496ZM750.942 134.487L747.027 134.821L745.127 112.582L749.043 112.248L750.942 134.487ZM757.227 133.95L752.026 134.394L750.127 112.155L755.328 111.711C758.945 111.402 760.745 113.446 761.126 117.9L761.894 126.897C762.272 131.321 760.844 133.641 757.227 133.95ZM754.334 115.228L755.654 130.682L756.52 130.608C757.656 130.511 758.23 129.83 758.062 127.857L757.184 117.574C757.015 115.601 756.336 115.057 755.2 115.154L754.334 115.228ZM774.399 132.483L770.423 132.823L769.623 129.097L766.305 129.381L766.149 133.188L762.143 133.53L763.681 110.997L769.062 110.538L774.399 132.483ZM766.775 117.959L766.443 126.057L768.924 125.845L767.223 117.921L766.82 115.667L766.76 115.672L766.775 117.959ZM779.699 132.03L775.784 132.365L775.255 126.177L770.147 110.445L774.213 110.098L776.568 120.043L776.752 121.142L776.812 121.137L776.837 120.02L777.471 109.819L781.506 109.475L779.171 125.843L779.699 132.03Z" fill="white"/>
<path d="M0.0412745 198.473L-5.15979 198.917L-7.05946 176.678L-2.24698 176.267C0.772021 176.009 2.68805 177.29 2.91019 179.891L3.15786 182.79C3.28553 184.285 2.85728 185.616 1.44623 186.369L1.44879 186.399C3.21567 186.639 4.13507 187.886 4.29338 189.739L4.61255 193.475C4.85256 196.285 3.44886 198.181 0.0412745 198.473ZM-2.95763 179.579L-2.45207 185.498L-1.61512 185.426C-0.568933 185.337 -0.226308 184.766 -0.318227 183.69L-0.563346 180.82C-0.647606 179.834 -1.10438 179.421 -2.12068 179.508L-2.95763 179.579ZM-2.18653 188.606L-1.60692 195.392L-0.680299 195.313C0.395783 195.221 0.830635 194.672 0.733608 193.536L0.434869 190.038C0.335289 188.873 -0.213713 188.438 -1.28979 188.53L-2.18653 188.606ZM13.7195 197.304L5.6489 197.994L3.74923 175.755L7.66497 175.42L9.26335 194.132L13.4182 193.777L13.7195 197.304ZM25.5109 196.297L21.5353 196.637L20.7354 192.911L17.4174 193.195L17.2609 197.002L13.2555 197.344L14.7933 174.811L20.1737 174.352L25.5109 196.297ZM17.8871 181.773L17.5551 189.871L20.036 189.659L18.3354 181.735L17.9321 179.481L17.8724 179.486L17.8871 181.773ZM30.4822 196.264C27.0148 196.56 25.0451 194.651 24.7004 190.615L23.7813 179.854C23.434 175.789 24.9915 173.579 28.5187 173.277C32.1953 172.963 33.9684 175.04 34.2876 178.776L34.5506 181.855L30.6349 182.19L30.3387 178.722C30.2314 177.467 29.8935 176.683 28.8174 176.775C27.9804 176.846 27.4935 177.49 27.6186 178.955L28.6297 190.792C28.7548 192.256 29.3465 192.838 30.1834 192.766C31.1101 192.687 31.4749 192.024 31.3549 190.619L31.023 186.733L34.9387 186.399L35.2349 189.866C35.5541 193.602 34.2783 195.939 30.4822 196.264ZM40.3268 195.031L36.4111 195.366L34.5114 173.127L38.4272 172.792L39.2059 181.909L39.9831 181.843L41.0875 172.565L45.2423 172.21L43.2595 183.189L43.2698 183.308L47.4708 194.421L43.2861 194.779L40.2716 185.22L39.4944 185.287L40.3268 195.031ZM56.1937 193.676L52.2779 194.01L50.3782 171.771L58.688 171.062L58.9867 174.559L54.5927 174.934L55.1187 181.092L58.9747 180.762L59.2709 184.23L55.4149 184.559L56.1937 193.676ZM64.9006 192.932L60.9849 193.267L59.0852 171.028L64.3162 170.581C67.6939 170.292 69.5406 171.821 69.796 174.81L70.1024 178.397C70.2658 180.31 69.6061 181.751 68.0353 182.397L68.0379 182.427C69.6852 182.678 70.3757 184.064 70.6117 186.121L71.0026 189.641C71.1296 190.774 71.3334 191.75 71.5962 192.36L67.7104 192.692C67.5423 192.135 67.2907 190.952 67.1007 189.432L66.7098 185.913C66.5581 184.842 66.0364 184.375 64.9902 184.464L64.1831 184.533L64.9006 192.932ZM63.2844 174.011L63.9201 181.454L64.9066 181.37C65.8033 181.293 66.3927 180.791 66.2676 179.327L65.9459 175.56C65.8412 174.335 65.317 173.838 64.3903 173.917L63.2844 174.011ZM75.7969 192.001L71.8811 192.336L69.9815 170.097L73.8972 169.762L75.7969 192.001ZM82.082 191.465L76.8809 191.909L74.9812 169.67L80.1823 169.226C83.7991 168.917 85.5996 170.961 85.9801 175.415L86.7486 184.412C87.1265 188.836 85.6988 191.156 82.082 191.465ZM79.188 172.743L80.5081 188.197L81.375 188.123C82.5108 188.026 83.0849 187.344 82.9164 185.371L82.0381 175.089C81.8695 173.116 81.1908 172.572 80.0549 172.669L79.188 172.743ZM99.2533 189.998L95.2777 190.337L94.4778 186.612L91.1598 186.895L91.0033 190.703L86.9979 191.045L88.5357 168.512L93.9161 168.052L99.2533 189.998ZM91.6295 175.474L91.2974 183.572L93.7784 183.36L92.0778 175.436L91.6745 173.182L91.6147 173.187L91.6295 175.474ZM104.554 189.545L100.638 189.88L100.11 183.692L95.002 167.96L99.0672 167.612L101.422 177.558L101.606 178.656L101.666 178.651L101.691 177.535L102.325 167.334L106.361 166.989L104.025 183.358L104.554 189.545Z" fill="white"/>
<path d="M134.552 186.982L129.351 187.427L127.451 165.187L132.264 164.776C135.283 164.519 137.199 165.8 137.421 168.401L137.669 171.3C137.796 172.795 137.368 174.126 135.957 174.879L135.96 174.909C137.726 175.149 138.646 176.395 138.804 178.249L139.123 181.985C139.363 184.795 137.96 186.691 134.552 186.982ZM131.553 168.089L132.059 174.007L132.896 173.936C133.942 173.847 134.284 173.275 134.193 172.199L133.947 169.33C133.863 168.343 133.406 167.931 132.39 168.017L131.553 168.089ZM132.324 177.116L132.904 183.901L133.83 183.822C134.907 183.73 135.341 183.181 135.244 182.045L134.946 178.548C134.846 177.382 134.297 176.948 133.221 177.039L132.324 177.116ZM148.23 185.814L140.16 186.503L138.26 164.264L142.176 163.93L143.774 182.642L147.929 182.287L148.23 185.814ZM160.022 184.807L156.046 185.146L155.246 181.421L151.928 181.704L151.772 185.511L147.766 185.853L149.304 163.321L154.684 162.861L160.022 184.807ZM152.398 170.283L152.066 178.38L154.547 178.168L152.846 170.244L152.443 167.991L152.383 167.996L152.398 170.283ZM164.993 184.773C161.526 185.07 159.556 183.16 159.211 179.125L158.292 168.364C157.945 164.299 159.502 162.088 163.029 161.787C166.706 161.473 168.479 163.55 168.798 167.286L169.061 170.365L165.146 170.699L164.849 167.232C164.742 165.976 164.404 165.192 163.328 165.284C162.491 165.356 162.004 166 162.129 167.464L163.14 179.301C163.266 180.766 163.857 181.348 164.694 181.276C165.621 181.197 165.986 180.533 165.866 179.129L165.534 175.243L169.449 174.908L169.746 178.376C170.065 182.112 168.789 184.449 164.993 184.773ZM174.838 183.541L170.922 183.875L169.022 161.636L172.938 161.302L173.717 170.419L174.494 170.352L175.598 161.075L179.753 160.72L177.77 171.698L177.78 171.818L181.982 182.931L177.797 183.288L174.782 173.73L174.005 173.796L174.838 183.541ZM190.704 182.186L186.789 182.52L184.889 160.281L193.199 159.571L193.497 163.069L189.103 163.444L189.629 169.601L193.485 169.272L193.782 172.739L189.926 173.069L190.704 182.186ZM199.411 181.442L195.496 181.776L193.596 159.537L198.827 159.091C202.205 158.802 204.051 160.33 204.307 163.319L204.613 166.906C204.777 168.819 204.117 170.261 202.546 170.907L202.549 170.937C204.196 171.187 204.886 172.574 205.122 174.631L205.513 178.151C205.64 179.284 205.844 180.26 206.107 180.87L202.221 181.202C202.053 180.644 201.801 179.461 201.611 177.942L201.22 174.422C201.069 173.351 200.547 172.884 199.501 172.974L198.694 173.042L199.411 181.442ZM197.795 162.521L198.431 169.964L199.417 169.879C200.314 169.803 200.903 169.301 200.778 167.836L200.457 164.07C200.352 162.844 199.828 162.347 198.901 162.426L197.795 162.521ZM210.308 180.511L206.392 180.846L204.492 158.607L208.408 158.272L210.308 180.511ZM216.593 179.974L211.392 180.419L209.492 158.18L214.693 157.735C218.31 157.426 220.11 159.47 220.491 163.924L221.259 172.921C221.637 177.345 220.21 179.665 216.593 179.974ZM213.699 161.253L215.019 176.706L215.886 176.632C217.022 176.535 217.596 175.854 217.427 173.881L216.549 163.599C216.38 161.626 215.701 161.082 214.566 161.179L213.699 161.253ZM233.764 178.507L229.788 178.847L228.988 175.122L225.671 175.405L225.514 179.212L221.509 179.554L223.046 157.022L228.427 156.562L233.764 178.507ZM226.14 163.984L225.808 172.081L228.289 171.869L226.589 163.945L226.185 161.691L226.125 161.697L226.14 163.984ZM239.065 178.055L235.149 178.389L234.62 172.202L229.513 156.469L233.578 156.122L235.933 166.068L236.117 167.166L236.177 167.161L236.202 166.045L236.836 155.844L240.871 155.499L238.536 171.867L239.065 178.055Z" fill="white"/>
<path d="M269.062 175.492L263.861 175.936L261.961 153.697L266.774 153.286C269.793 153.028 271.709 154.31 271.931 156.91L272.178 159.81C272.306 161.304 271.878 162.636 270.467 163.388L270.469 163.418C272.236 163.659 273.156 164.905 273.314 166.758L273.633 170.495C273.873 173.304 272.469 175.201 269.062 175.492ZM266.063 156.599L266.568 162.517L267.405 162.446C268.452 162.356 268.794 161.785 268.702 160.709L268.457 157.839C268.373 156.853 267.916 156.44 266.9 156.527L266.063 156.599ZM266.834 165.626L267.414 172.411L268.34 172.332C269.416 172.24 269.851 171.691 269.754 170.555L269.455 167.058C269.356 165.892 268.807 165.457 267.731 165.549L266.834 165.626ZM282.74 174.323L274.669 175.013L272.77 152.774L276.685 152.439L278.284 171.151L282.439 170.796L282.74 174.323ZM294.531 173.316L290.556 173.656L289.756 169.93L286.438 170.214L286.281 174.021L282.276 174.363L283.814 151.83L289.194 151.371L294.531 173.316ZM286.908 158.792L286.576 166.89L289.057 166.678L287.356 158.754L286.953 156.5L286.893 156.505L286.908 158.792ZM299.503 173.283C296.035 173.579 294.066 171.67 293.721 167.635L292.802 156.874C292.455 152.809 294.012 150.598 297.539 150.297C301.216 149.983 302.989 152.059 303.308 155.796L303.571 158.874L299.655 159.209L299.359 155.742C299.252 154.486 298.914 153.702 297.838 153.794C297.001 153.866 296.514 154.509 296.639 155.974L297.65 167.811C297.775 169.276 298.367 169.857 299.204 169.786C300.131 169.707 300.495 169.043 300.375 167.638L300.043 163.752L303.959 163.418L304.255 166.885C304.575 170.622 303.299 172.959 299.503 173.283ZM309.347 172.051L305.432 172.385L303.532 150.146L307.448 149.812L308.226 158.928L309.004 158.862L310.108 149.584L314.263 149.23L312.28 160.208L312.29 160.328L316.491 171.44L312.307 171.798L309.292 162.24L308.515 162.306L309.347 172.051ZM325.214 170.695L321.298 171.03L319.399 148.791L327.708 148.081L328.007 151.578L323.613 151.954L324.139 158.111L327.995 157.782L328.291 161.249L324.435 161.579L325.214 170.695ZM333.921 169.952L330.005 170.286L328.106 148.047L333.337 147.6C336.714 147.312 338.561 148.84 338.816 151.829L339.123 155.416C339.286 157.329 338.627 158.771 337.056 159.417L337.058 159.446C338.706 159.697 339.396 161.083 339.632 163.141L340.023 166.66C340.15 167.794 340.354 168.77 340.617 169.38L336.731 169.712C336.563 169.154 336.311 167.971 336.121 166.452L335.73 162.932C335.579 161.861 335.057 161.394 334.011 161.483L333.204 161.552L333.921 169.952ZM332.305 151.03L332.941 158.473L333.927 158.389C334.824 158.313 335.413 157.811 335.288 156.346L334.966 152.58C334.862 151.354 334.337 150.857 333.411 150.936L332.305 151.03ZM344.817 169.021L340.902 169.355L339.002 147.116L342.918 146.782L344.817 169.021ZM351.102 168.484L345.901 168.928L344.002 146.689L349.203 146.245C352.82 145.936 354.62 147.98 355.001 152.434L355.769 161.431C356.147 165.855 354.719 168.175 351.102 168.484ZM348.209 149.762L349.529 165.216L350.395 165.142C351.531 165.045 352.105 164.364 351.937 162.391L351.059 152.108C350.89 150.135 350.211 149.591 349.075 149.688L348.209 149.762ZM368.274 167.017L364.298 167.357L363.498 163.631L360.18 163.915L360.024 167.722L356.018 168.064L357.556 145.531L362.937 145.072L368.274 167.017ZM360.65 152.493L360.318 160.591L362.799 160.379L361.098 152.455L360.695 150.201L360.635 150.206L360.65 152.493ZM373.574 166.564L369.659 166.899L369.13 160.711L364.022 144.979L368.088 144.632L370.443 154.577L370.627 155.676L370.687 155.671L370.712 154.554L371.346 144.353L375.381 144.009L373.046 160.377L373.574 166.564Z" fill="white"/>
<path d="M1079.64 106.41L1074.43 106.854L1072.54 84.6153L1077.35 84.2042C1080.37 83.9463 1082.28 85.2279 1082.5 87.8284L1082.75 90.7278C1082.88 92.2224 1082.45 93.5537 1081.04 94.3065L1081.04 94.3364C1082.81 94.5769 1083.73 95.8231 1083.89 97.6764L1084.21 101.413C1084.45 104.223 1083.04 106.119 1079.64 106.41ZM1076.64 87.5167L1077.14 93.4351L1077.98 93.3636C1079.03 93.2743 1079.37 92.703 1079.28 91.6269L1079.03 88.7574C1078.95 87.771 1078.49 87.3584 1077.47 87.4452L1076.64 87.5167ZM1077.41 96.5438L1077.99 103.329L1078.91 103.25C1079.99 103.158 1080.43 102.609 1080.33 101.473L1080.03 97.9759C1079.93 96.8101 1079.38 96.3753 1078.3 96.4672L1077.41 96.5438ZM1093.31 105.242L1085.24 105.931L1083.34 83.692L1087.26 83.3575L1088.86 102.069L1093.01 101.714L1093.31 105.242ZM1105.11 104.234L1101.13 104.574L1100.33 100.849L1097.01 101.132L1096.86 104.939L1092.85 105.281L1094.39 82.7486L1099.77 82.289L1105.11 104.234ZM1097.48 89.7105L1097.15 97.8082L1099.63 97.5962L1097.93 89.6722L1097.53 87.4184L1097.47 87.4235L1097.48 89.7105ZM1110.08 104.201C1106.61 104.497 1104.64 102.588 1104.3 98.5527L1103.38 87.7919C1103.03 83.7267 1104.59 81.5161 1108.11 81.2148C1111.79 80.9008 1113.56 82.9774 1113.88 86.7138L1114.15 89.7926L1110.23 90.1271L1109.93 86.6597C1109.83 85.4043 1109.49 84.6202 1108.41 84.7121C1107.58 84.7836 1107.09 85.4274 1107.21 86.892L1108.22 98.7289C1108.35 100.194 1108.94 100.775 1109.78 100.704C1110.7 100.625 1111.07 99.9612 1110.95 98.5564L1110.62 94.6705L1114.53 94.336L1114.83 97.8034C1115.15 101.54 1113.87 103.877 1110.08 104.201ZM1119.92 102.969L1116.01 103.303L1114.11 81.0642L1118.02 80.7297L1118.8 89.8465L1119.58 89.7802L1120.68 80.5025L1124.84 80.1476L1122.85 91.1262L1122.86 91.2457L1127.07 102.359L1122.88 102.716L1119.87 93.1579L1119.09 93.2242L1119.92 102.969ZM1135.79 101.613L1131.87 101.948L1129.97 79.7089L1138.28 78.9991L1138.58 82.4963L1134.19 82.8717L1134.71 89.0292L1138.57 88.6999L1138.87 92.1672L1135.01 92.4966L1135.79 101.613ZM1144.5 100.87L1140.58 101.204L1138.68 78.9651L1143.91 78.5183C1147.29 78.2298 1149.14 79.7581 1149.39 82.7472L1149.7 86.3342C1149.86 88.2472 1149.2 89.6886 1147.63 90.3346L1147.63 90.3645C1149.28 90.6152 1149.97 92.0015 1150.21 94.0589L1150.6 97.5784C1150.72 98.7117 1150.93 99.6879 1151.19 100.298L1147.31 100.63C1147.14 100.072 1146.89 98.889 1146.7 97.3697L1146.3 93.8502C1146.15 92.7792 1145.63 92.3119 1144.58 92.4013L1143.78 92.4702L1144.5 100.87ZM1142.88 81.9486L1143.51 89.3914L1144.5 89.3072C1145.4 89.2306 1145.99 88.7286 1145.86 87.2639L1145.54 83.4977C1145.44 82.2721 1144.91 81.7749 1143.99 81.8541L1142.88 81.9486ZM1155.39 99.9389L1151.48 100.273L1149.58 78.0344L1153.49 77.6999L1155.39 99.9389ZM1161.68 99.402L1156.48 99.8463L1154.58 77.6073L1159.78 77.163C1163.39 76.854 1165.19 78.8982 1165.57 83.352L1166.34 92.3492C1166.72 96.7731 1165.29 99.0931 1161.68 99.402ZM1158.78 80.6804L1160.1 96.1341L1160.97 96.0601C1162.11 95.963 1162.68 95.2817 1162.51 93.3089L1161.63 83.0263C1161.46 81.0535 1160.79 80.5093 1159.65 80.6063L1158.78 80.6804ZM1178.85 97.9352L1174.87 98.2748L1174.07 94.5494L1170.75 94.8328L1170.6 98.6399L1166.59 98.9821L1168.13 76.4494L1173.51 75.9898L1178.85 97.9352ZM1171.22 83.4114L1170.89 91.509L1173.37 91.2971L1171.67 83.3731L1171.27 81.1192L1171.21 81.1243L1171.22 83.4114ZM1184.15 97.4824L1180.23 97.8169L1179.7 91.6295L1174.6 75.8971L1178.66 75.5498L1181.02 85.4955L1181.2 86.5938L1181.26 86.5887L1181.29 85.4725L1181.92 75.2715L1185.96 74.9268L1183.62 91.295L1184.15 97.4824Z" fill="white"/>
<path d="M1484.05 71.8639L1478.85 72.3082L1476.95 50.0692L1481.76 49.6581C1484.78 49.4002 1486.7 50.6818 1486.92 53.2823L1487.17 56.1818C1487.3 57.6763 1486.87 59.0076 1485.46 59.7604L1485.46 59.7903C1487.23 60.0308 1488.15 61.2771 1488.31 63.1303L1488.62 66.8667C1488.86 69.6765 1487.46 71.5728 1484.05 71.8639ZM1481.05 52.9706L1481.56 58.889L1482.4 58.8175C1483.44 58.7282 1483.79 58.1569 1483.69 57.0809L1483.45 54.2113C1483.36 53.2249 1482.91 52.8123 1481.89 52.8991L1481.05 52.9706ZM1481.83 61.9977L1482.4 68.783L1483.33 68.7039C1484.41 68.6119 1484.84 68.0629 1484.75 66.9271L1484.45 63.4298C1484.35 62.2641 1483.8 61.8292 1482.72 61.9211L1481.83 61.9977ZM1497.73 70.6955L1489.66 71.3849L1487.76 49.1459L1491.68 48.8114L1493.28 67.5233L1497.43 67.1684L1497.73 70.6955ZM1509.52 69.6883L1505.55 70.0279L1504.75 66.3024L1501.43 66.5859L1501.27 70.393L1497.27 70.7351L1498.81 48.2025L1504.19 47.7429L1509.52 69.6883ZM1501.9 55.1644L1501.57 63.2621L1504.05 63.0502L1502.35 55.1261L1501.94 52.8723L1501.88 52.8774L1501.9 55.1644ZM1514.49 69.655C1511.03 69.9512 1509.06 68.0419 1508.71 64.0066L1507.79 53.2458C1507.45 49.1806 1509 46.97 1512.53 46.6688C1516.21 46.3547 1517.98 48.4313 1518.3 52.1677L1518.56 55.2465L1514.65 55.581L1514.35 52.1136C1514.24 50.8582 1513.91 50.0741 1512.83 50.166C1511.99 50.2375 1511.51 50.8813 1511.63 52.346L1512.64 64.1829C1512.77 65.6475 1513.36 66.2293 1514.2 66.1578C1515.12 66.0786 1515.49 65.4152 1515.37 64.0103L1515.03 60.1244L1518.95 59.7899L1519.25 63.2573C1519.57 66.9937 1518.29 69.3308 1514.49 69.655ZM1524.34 68.4227L1520.42 68.7572L1518.52 46.5182L1522.44 46.1837L1523.22 55.3005L1523.99 55.2341L1525.1 45.9564L1529.25 45.6015L1527.27 56.5801L1527.28 56.6997L1531.48 67.8124L1527.3 68.1699L1524.28 58.6118L1523.51 58.6782L1524.34 68.4227ZM1540.21 67.0673L1536.29 67.4018L1534.39 45.1628L1542.7 44.453L1543 47.9502L1538.6 48.3256L1539.13 54.4832L1542.99 54.1538L1543.28 57.6212L1539.43 57.9505L1540.21 67.0673ZM1548.91 66.3236L1545 66.6581L1543.1 44.419L1548.33 43.9722C1551.71 43.6837 1553.55 45.2121 1553.81 48.2012L1554.11 51.7881C1554.28 53.7011 1553.62 55.1425 1552.05 55.7885L1552.05 55.8184C1553.7 56.0691 1554.39 57.4554 1554.62 59.5128L1555.01 63.0323C1555.14 64.1656 1555.35 65.1418 1555.61 65.7516L1551.72 66.0836C1551.55 65.5258 1551.3 64.343 1551.11 62.8236L1550.72 59.3041C1550.57 58.2332 1550.05 57.7659 1549 57.8552L1548.19 57.9242L1548.91 66.3236ZM1547.3 47.4025L1547.93 54.8454L1548.92 54.7611C1549.82 54.6845 1550.4 54.1825 1550.28 52.7179L1549.96 48.9516C1549.85 47.726 1549.33 47.2289 1548.4 47.308L1547.3 47.4025ZM1559.81 65.3928L1555.89 65.7273L1553.99 43.4883L1557.91 43.1538L1559.81 65.3928ZM1566.09 64.8559L1560.89 65.3002L1558.99 43.0612L1564.19 42.6169C1567.81 42.308 1569.61 44.3521 1569.99 48.8059L1570.76 57.8032C1571.14 62.227 1569.71 64.547 1566.09 64.8559ZM1563.2 46.1343L1564.52 61.588L1565.39 61.514C1566.52 61.417 1567.1 60.7356 1566.93 58.7628L1566.05 48.4802C1565.88 46.5074 1565.2 45.9632 1564.07 46.0603L1563.2 46.1343ZM1583.26 63.3891L1579.29 63.7287L1578.49 60.0033L1575.17 60.2867L1575.02 64.0939L1571.01 64.436L1572.55 41.9034L1577.93 41.4438L1583.26 63.3891ZM1575.64 48.8653L1575.31 56.963L1577.79 56.751L1576.09 48.827L1575.69 46.5732L1575.63 46.5783L1575.64 48.8653ZM1588.57 62.9364L1584.65 63.2709L1584.12 57.0834L1579.01 41.351L1583.08 41.0038L1585.43 50.9494L1585.62 52.0477L1585.68 52.0426L1585.7 50.9264L1586.34 40.7254L1590.37 40.3807L1588.04 56.7489L1588.57 62.9364Z" fill="white"/>
<path d="M1886.78 37.1074L1881.58 37.5516L1879.68 15.3126L1884.49 14.9015C1887.51 14.6436 1889.43 15.9252 1889.65 18.5258L1889.9 21.4252C1890.02 22.9197 1889.6 24.251 1888.18 25.0039L1888.19 25.0337C1889.95 25.2742 1890.87 26.5205 1891.03 28.3738L1891.35 32.1102C1891.59 34.9199 1890.19 36.8163 1886.78 37.1074ZM1883.78 18.214L1884.29 24.1325L1885.12 24.061C1886.17 23.9716 1886.51 23.4004 1886.42 22.3243L1886.17 19.4548C1886.09 18.4683 1885.63 18.0557 1884.62 18.1425L1883.78 18.214ZM1884.55 27.2412L1885.13 34.0265L1886.06 33.9473C1887.13 33.8554 1887.57 33.3064 1887.47 32.1705L1887.17 28.6732C1887.07 27.5075 1886.52 27.0726 1885.45 27.1646L1884.55 27.2412ZM1900.46 35.9389L1892.39 36.6283L1890.49 14.3893L1894.4 14.0548L1896 32.7667L1900.16 32.4118L1900.46 35.9389ZM1912.25 34.9317L1908.27 35.2713L1907.47 31.5459L1904.16 31.8293L1904 35.6364L1899.99 35.9786L1901.53 13.4459L1906.91 12.9863L1912.25 34.9317ZM1904.63 20.4079L1904.29 28.5055L1906.77 28.2936L1905.07 20.3696L1904.67 18.1157L1904.61 18.1208L1904.63 20.4079ZM1917.22 34.8985C1913.75 35.1947 1911.78 33.2854 1911.44 29.2501L1910.52 18.4893C1910.17 14.4241 1911.73 12.2135 1915.26 11.9122C1918.93 11.5981 1920.71 13.6748 1921.03 17.4111L1921.29 20.4899L1917.37 20.8244L1917.08 17.357C1916.97 16.1016 1916.63 15.3175 1915.56 15.4095C1914.72 15.481 1914.23 16.1247 1914.36 17.5894L1915.37 29.4263C1915.49 30.891 1916.08 31.4727 1916.92 31.4012C1917.85 31.3221 1918.21 30.6586 1918.09 29.2537L1917.76 25.3679L1921.68 25.0334L1921.97 28.5008C1922.29 32.2372 1921.02 34.5742 1917.22 34.8985ZM1927.07 33.6661L1923.15 34.0006L1921.25 11.7616L1925.17 11.4271L1925.94 20.5439L1926.72 20.4775L1927.83 11.1999L1931.98 10.845L1930 21.8235L1930.01 21.9431L1934.21 33.0559L1930.02 33.4133L1927.01 23.8552L1926.23 23.9216L1927.07 33.6661ZM1942.93 32.3108L1939.02 32.6453L1937.12 10.4062L1945.43 9.69642L1945.73 13.1937L1941.33 13.569L1941.86 19.7266L1945.71 19.3972L1946.01 22.8646L1942.15 23.194L1942.93 32.3108ZM1951.64 31.567L1947.72 31.9015L1945.82 9.66249L1951.05 9.21566C1954.43 8.92713 1956.28 10.4555 1956.53 13.4446L1956.84 17.0315C1957 18.9446 1956.34 20.386 1954.77 21.032L1954.78 21.0619C1956.42 21.3126 1957.11 22.6988 1957.35 24.7562L1957.74 28.2757C1957.87 29.409 1958.07 30.3852 1958.33 30.9951L1954.45 31.327C1954.28 30.7693 1954.03 29.5864 1953.84 28.0671L1953.45 24.5476C1953.3 23.4766 1952.77 23.0093 1951.73 23.0987L1950.92 23.1676L1951.64 31.567ZM1950.02 12.6459L1950.66 20.0888L1951.64 20.0046C1952.54 19.928 1953.13 19.426 1953.01 17.9613L1952.68 14.195C1952.58 12.9695 1952.06 12.4723 1951.13 12.5514L1950.02 12.6459ZM1962.54 30.6362L1958.62 30.9707L1956.72 8.73172L1960.64 8.39723L1962.54 30.6362ZM1968.82 30.0994L1963.62 30.5436L1961.72 8.30464L1966.92 7.86036C1970.54 7.55141 1972.34 9.59558 1972.72 14.0494L1973.49 23.0466C1973.86 27.4705 1972.44 29.7904 1968.82 30.0994ZM1965.93 11.3777L1967.25 26.8315L1968.11 26.7574C1969.25 26.6604 1969.82 25.9791 1969.65 24.0062L1968.78 13.7237C1968.61 11.7509 1967.93 11.2067 1966.79 11.3037L1965.93 11.3777ZM1985.99 28.6326L1982.02 28.9722L1981.22 25.2467L1977.9 25.5302L1977.74 29.3373L1973.74 29.6794L1975.27 7.1468L1980.65 6.6872L1985.99 28.6326ZM1978.37 14.1088L1978.04 22.2064L1980.52 21.9945L1978.82 14.0705L1978.41 11.8166L1978.35 11.8217L1978.37 14.1088ZM1991.29 28.1798L1987.38 28.5143L1986.85 22.3268L1981.74 6.59445L1985.81 6.2472L1988.16 16.1928L1988.34 17.2912L1988.4 17.2861L1988.43 16.1699L1989.06 5.96888L1993.1 5.62418L1990.76 21.9923L1991.29 28.1798Z" fill="white"/>
</g>
<defs>
<clipPath id="clip0_22_490">
<rect width="1993.94" height="41.1307" fill="white" transform="translate(-43.0996 170.281) rotate(-4.8824)"/>
</clipPath>
</defs>
</svg>
