<svg width="27" height="22" viewBox="0 0 27 22" fill="none" xmlns="http://www.w3.org/2000/svg">
<rect width="25.6576" height="20.5261" transform="translate(0.623047 0.951172)" fill="black"/>
<path d="M5.70633 9.63751C10.5275 7.63098 13.7424 6.30815 15.351 5.669C19.9438 3.84409 20.8981 3.52709 21.5202 3.51655C21.657 3.51434 21.9628 3.54673 22.161 3.70035C22.3283 3.83002 22.3744 4.00519 22.3964 4.12816C22.4184 4.25113 22.4458 4.53125 22.4241 4.75009C22.1751 7.24819 21.0982 13.3104 20.5504 16.1083C20.3185 17.2922 19.8621 17.6891 19.4201 17.728C18.4597 17.8124 17.7304 17.1217 16.8003 16.5392C15.3447 15.6278 14.5224 15.0603 13.1095 14.1709C11.4767 13.1431 12.5352 12.5781 13.4657 11.6549C13.7092 11.4133 17.9408 7.73647 18.0227 7.40295C18.0329 7.36122 18.0424 7.20574 17.9457 7.12366C17.849 7.04153 17.7063 7.0696 17.6033 7.09193C17.4573 7.1236 15.132 8.5918 10.6275 11.4965C9.96742 11.9294 9.36958 12.1404 8.83394 12.1293C8.24347 12.1171 7.1076 11.8104 6.26322 11.5482C5.22751 11.2266 4.40435 11.0566 4.47603 10.5104C4.51336 10.2259 4.92347 9.93494 5.70633 9.63751Z" fill="white"/>
</svg>
