<svg width="31" height="24" viewBox="0 0 31 24" fill="none" xmlns="http://www.w3.org/2000/svg">
<g clip-path="url(#clip0_12_332)">
<rect width="30.4994" height="23.2377" transform="translate(0.0961914 0.371094)" fill="black"/>
<path fill-rule="evenodd" clip-rule="evenodd" d="M26.4321 5.6658C26.5937 5.12596 26.4321 4.72925 25.6632 4.72925H23.121C22.4745 4.72925 22.1767 5.07193 22.0152 5.44991C22.0152 5.44991 20.7223 8.60812 18.8908 10.6596C18.2982 11.2534 18.0289 11.4421 17.7057 11.4421C17.5441 11.4421 17.3102 11.2534 17.3102 10.7136V5.6658C17.3102 5.0179 17.1227 4.72925 16.5839 4.72925H12.5889C12.1851 4.72925 11.9421 5.02989 11.9421 5.31491C11.9421 5.92911 12.8577 6.07072 12.9522 7.79822V11.5504C12.9522 12.3731 12.804 12.5223 12.4807 12.5223C11.6189 12.5223 9.52272 9.34977 8.27922 5.71983C8.03551 5.01427 7.79108 4.72925 7.14137 4.72925H4.59916C3.87281 4.72925 3.72754 5.07193 3.72754 5.44991C3.72754 6.12482 4.58953 9.47206 7.74061 13.8989C9.84159 16.9218 12.8011 18.5609 15.4944 18.5609C17.1105 18.5609 17.3102 18.1969 17.3102 17.5699V15.285C17.3102 14.557 17.4633 14.4117 17.9748 14.4117C18.3522 14.4117 18.9985 14.6007 20.5069 16.0583C22.2305 17.7856 22.5145 18.5609 23.4842 18.5609H26.0264C26.7527 18.5609 27.1159 18.1969 26.9064 17.4785C26.6772 16.7626 25.8542 15.7242 24.7622 14.4928C24.1696 13.7908 23.2808 13.035 23.0117 12.6571C22.6345 12.1712 22.7422 11.9554 23.0117 11.5237C23.0117 11.5237 26.1088 7.15054 26.4321 5.6658Z" fill="white"/>
</g>
<defs>
<clipPath id="clip0_12_332">
<rect width="30.4994" height="23.2377" fill="white" transform="translate(0.0961914 0.371094)"/>
</clipPath>
</defs>
</svg>
