<svg width="16" height="17" viewBox="0 0 16 17" fill="none" xmlns="http://www.w3.org/2000/svg">
<path d="M11.9811 6.68996V4.62454C11.9811 2.60942 10.3799 0.969971 8.41204 0.969971H6.84726C4.879 0.969971 3.27784 2.60942 3.27784 4.62454V6.6972C2.60271 6.82083 2.0874 7.40338 2.0874 8.09833V14.6043C2.0874 15.3884 2.7433 16.03 3.54474 16.03H11.7553C12.5568 16.03 13.2127 15.3884 13.2127 14.6043V8.09833C13.2127 7.38986 12.6764 6.79702 11.9811 6.68996ZM8.32746 11.5536V13.1786C8.32746 13.4436 8.10571 13.6606 7.83482 13.6606H7.71157C7.44067 13.6606 7.21893 13.4436 7.21893 13.1786V11.5784C6.66648 11.3721 6.27481 10.8495 6.27481 10.2371C6.27481 9.44422 6.93184 8.80128 7.74166 8.80128C8.55148 8.80128 9.20852 9.44422 9.20852 10.2371C9.21005 10.8263 8.84676 11.3332 8.32746 11.5536ZM10.7882 6.67262H4.47076V4.62454C4.47076 3.2737 5.53757 2.1747 6.84726 2.1747H8.41204C9.7223 2.1747 10.7883 3.2737 10.7883 4.62454L10.7882 6.67262Z" fill="#8C8C8C"/>
</svg>
