<svg width="1920" height="209" viewBox="0 0 1920 209" fill="none" xmlns="http://www.w3.org/2000/svg">
<g clip-path="url(#clip0_2002_279)">
<g filter="url(#filter0_d_2002_279)">
<rect x="-18.8281" y="167.972" width="1920.71" height="41.1307" transform="rotate(-4.88 -18.8281 167.972)" fill="url(#paint0_linear_2002_279)"/>
</g>
<path d="M45.4796 194.516L40.428 194.947L35.7195 172.948L39.695 172.609L42.3442 187.768L42.7055 190.236L42.7653 190.231L42.7029 187.738L42.714 172.351L47.2276 171.965L49.8768 187.125L50.2381 189.593L50.2979 189.588L50.2056 187.097L50.2765 171.705L54.2221 171.368L53.341 193.845L48.2894 194.276L45.7936 179.856L45.533 177.861L45.4433 177.869L45.4947 179.882L45.4796 194.516ZM61.0049 193.582C57.4777 193.883 55.5329 191.911 55.1909 187.906L54.2722 177.145C53.9328 173.169 55.5151 170.897 59.0124 170.598C62.5097 170.299 64.4844 172.269 64.8238 176.244L65.7425 187.005C66.0845 191.01 64.5021 193.283 61.0049 193.582ZM60.7063 190.085C61.5731 190.011 62.0302 189.369 61.9026 187.875L60.892 176.038C60.7669 174.573 60.2077 174.019 59.3409 174.093C58.4442 174.169 57.9871 174.81 58.1121 176.275L59.1227 188.112C59.2503 189.607 59.8095 190.161 60.7063 190.085ZM70.9051 192.345L67.0791 192.672L65.1803 170.433L69.9928 170.022L72.9456 181.332L73.2584 183.232L73.3182 183.227L73.3043 181.301L74.327 169.652L79.1395 169.241L81.0383 191.48L77.2122 191.807L76.3853 182.122L76.1275 176.634L76.0678 176.639L76.0065 178.391L75.056 188.769L72.5152 188.986L69.819 178.919L69.4319 177.206L69.3721 177.211L70.0783 182.66L70.9051 192.345ZM90.6693 190.658L82.1204 191.388L80.2217 169.148L88.651 168.429L88.9471 171.896L84.4335 172.282L84.9235 178.021L88.899 177.681L89.1849 181.029L85.2093 181.368L85.7376 187.556L90.3707 187.16L90.6693 190.658ZM95.0622 190.283L91.2361 190.609L89.3374 168.37L93.283 168.033L96.9084 178.051L97.6761 180.696L97.7359 180.69L97.3184 177.565L96.4814 167.76L100.307 167.434L102.206 189.673L98.2307 190.012L94.6428 180.081L93.8751 177.437L93.8153 177.442L94.2328 180.568L95.0622 190.283ZM113.063 188.746L107.862 189.19L105.963 166.951L111.164 166.507C114.781 166.198 116.582 168.242 116.962 172.696L117.73 181.693C118.108 186.117 116.68 188.437 113.063 188.746ZM110.17 170.024L111.489 185.478L112.356 185.404C113.492 185.307 114.066 184.625 113.898 182.653L113.02 172.37C112.851 170.397 112.173 169.853 111.037 169.95L110.17 170.024ZM130.234 187.28L126.259 187.619L125.459 183.894L122.141 184.177L121.984 187.984L117.979 188.326L119.518 165.793L124.898 165.334L130.234 187.28ZM122.611 172.756L122.279 180.853L124.76 180.641L123.06 172.717L122.656 170.463L122.597 170.468L122.611 172.756ZM135.535 186.827L131.619 187.161L131.091 180.974L125.984 165.241L130.049 164.894L132.404 174.84L132.588 175.938L132.648 175.933L132.673 174.817L133.307 164.616L137.343 164.272L135.007 180.64L135.535 186.827ZM148.878 186.079C145.5 186.368 143.471 184.825 143.173 181.327L142.93 178.488L146.756 178.161L146.999 181.001C147.08 181.957 147.453 182.799 148.589 182.702C149.396 182.633 149.796 182.027 149.727 181.219L149.47 178.2C149.342 176.706 148.567 176.441 146.48 175.625C143.891 174.582 142.661 173.573 142.397 170.825L142.162 168.075C141.914 165.176 143.866 163.353 146.855 163.098C150.173 162.815 152.163 164.602 152.406 167.803L152.625 170.374L148.919 170.69L148.699 168.119C148.607 167.043 148.163 166.419 147.176 166.503C146.369 166.572 146.051 167.081 146.11 167.768L146.34 170.459C146.447 171.714 147.29 172.064 148.474 172.535C151.765 173.699 153.168 174.964 153.415 177.864L153.678 180.942C153.931 183.902 151.956 185.816 148.878 186.079ZM165.763 184.246L161.787 184.586L160.988 180.86L157.67 181.144L157.513 184.951L153.508 185.293L155.046 162.76L160.427 162.301L165.763 184.246ZM158.14 169.722L157.807 177.82L160.288 177.608L158.588 169.684L158.185 167.43L158.125 167.435L158.14 169.722ZM174.071 183.537L166 184.226L164.102 161.987L168.017 161.653L169.615 180.365L173.77 180.01L174.071 183.537ZM183.023 182.773L174.474 183.503L172.575 161.263L181.004 160.544L181.301 164.011L176.787 164.397L177.277 170.136L181.252 169.796L181.538 173.144L177.563 173.483L178.091 179.671L182.724 179.275L183.023 182.773Z" fill="white"/>
<path d="M695.212 139.042L690.16 139.474L685.452 117.474L689.427 117.135L692.076 132.295L692.438 134.763L692.497 134.758L692.435 132.264L692.446 116.877L696.96 116.492L699.609 131.651L699.97 134.12L700.03 134.115L699.938 131.623L700.009 116.232L703.954 115.895L703.073 138.371L698.022 138.802L695.526 124.382L695.265 122.387L695.175 122.395L695.227 124.408L695.212 139.042ZM710.737 138.108C707.21 138.409 705.265 136.438 704.923 132.432L704.004 121.671C703.665 117.696 705.247 115.423 708.745 115.124C712.242 114.826 714.217 116.795 714.556 120.77L715.475 131.531C715.817 135.537 714.234 137.81 710.737 138.108ZM710.438 134.611C711.305 134.537 711.762 133.896 711.635 132.401L710.624 120.564C710.499 119.1 709.94 118.545 709.073 118.619C708.176 118.696 707.719 119.337 707.844 120.802L708.855 132.638C708.983 134.133 709.542 134.687 710.438 134.611ZM720.637 136.871L716.811 137.198L714.912 114.959L719.725 114.548L722.678 125.858L722.991 127.758L723.05 127.753L723.037 125.827L724.059 114.178L728.872 113.767L730.77 136.006L726.944 136.333L726.118 126.648L725.86 121.16L725.8 121.165L725.739 122.917L724.788 133.295L722.247 133.512L719.551 123.445L719.164 121.732L719.104 121.737L719.81 127.187L720.637 136.871ZM740.402 135.184L731.853 135.914L729.954 113.675L738.383 112.955L738.679 116.423L734.166 116.808L734.656 122.547L738.631 122.208L738.917 125.555L734.941 125.895L735.47 132.082L740.103 131.687L740.402 135.184ZM744.794 134.809L740.968 135.136L739.07 112.897L743.015 112.56L746.641 122.578L747.408 125.222L747.468 125.217L747.051 122.091L746.214 112.287L750.04 111.96L751.938 134.199L747.963 134.538L744.375 124.608L743.607 121.963L743.548 121.969L743.965 125.094L744.794 134.809ZM762.795 133.272L757.594 133.716L755.695 111.477L760.896 111.033C764.513 110.724 766.314 112.768 766.694 117.222L767.462 126.22C767.84 130.643 766.412 132.963 762.795 133.272ZM759.902 114.55L761.221 130.004L762.088 129.93C763.224 129.833 763.798 129.152 763.63 127.179L762.752 116.896C762.584 114.924 761.905 114.379 760.769 114.476L759.902 114.55ZM779.967 131.806L775.991 132.145L775.191 128.42L771.873 128.703L771.717 132.51L767.711 132.852L769.25 110.32L774.63 109.86L779.967 131.806ZM772.343 117.282L772.011 125.38L774.492 125.168L772.792 117.244L772.389 114.99L772.329 114.995L772.343 117.282ZM785.267 131.353L781.351 131.688L780.823 125.5L775.716 109.768L779.781 109.421L782.136 119.366L782.32 120.465L782.38 120.46L782.405 119.343L783.04 109.142L787.075 108.798L784.739 125.166L785.267 131.353ZM798.61 130.606C795.232 130.894 793.204 129.351 792.905 125.854L792.662 123.014L796.489 122.687L796.731 125.527C796.813 126.484 797.186 127.325 798.321 127.228C799.129 127.159 799.528 126.553 799.459 125.746L799.202 122.727C799.074 121.232 798.299 120.967 796.212 120.152C793.624 119.108 792.393 118.099 792.129 115.352L791.894 112.602C791.646 109.702 793.598 107.88 796.588 107.624C799.905 107.341 801.895 109.128 802.138 112.329L802.357 114.9L798.651 115.216L798.431 112.646C798.339 111.57 797.895 110.945 796.908 111.03C796.101 111.098 795.783 111.607 795.842 112.295L796.072 114.985C796.179 116.24 797.022 116.59 798.206 117.061C801.497 118.225 802.9 119.49 803.147 122.39L803.41 125.469C803.663 128.428 801.689 130.343 798.61 130.606ZM815.495 128.773L811.52 129.112L810.72 125.387L807.402 125.67L807.245 129.477L803.24 129.819L804.778 107.286L810.159 106.827L815.495 128.773ZM807.872 114.249L807.54 122.346L810.021 122.134L808.32 114.21L807.917 111.956L807.857 111.961L807.872 114.249ZM823.803 128.063L815.733 128.752L813.834 106.513L817.75 106.179L819.347 124.891L823.502 124.536L823.803 128.063ZM832.755 127.299L824.206 128.029L822.307 105.79L830.737 105.07L831.033 108.538L826.519 108.923L827.009 114.662L830.985 114.323L831.27 117.67L827.295 118.01L827.823 124.197L832.456 123.802L832.755 127.299Z" fill="white"/>
<path d="M370.393 166.775L365.341 167.206L360.633 145.207L364.608 144.867L367.257 160.027L367.619 162.495L367.678 162.49L367.616 159.996L367.627 144.61L372.141 144.224L374.79 159.384L375.151 161.852L375.211 161.847L375.119 159.356L375.19 143.964L379.135 143.627L378.254 166.104L373.202 166.535L370.707 152.115L370.446 150.12L370.356 150.127L370.408 152.14L370.393 166.775ZM385.918 165.841C382.391 166.142 380.446 164.17 380.104 160.165L379.185 149.404C378.846 145.428 380.428 143.155 383.926 142.857C387.423 142.558 389.397 144.527 389.737 148.503L390.656 159.264C390.998 163.269 389.415 165.542 385.918 165.841ZM385.619 162.343C386.486 162.269 386.943 161.628 386.816 160.134L385.805 148.297C385.68 146.832 385.121 146.278 384.254 146.352C383.357 146.428 382.9 147.069 383.025 148.534L384.036 160.371C384.163 161.865 384.723 162.42 385.619 162.343ZM395.818 164.604L391.992 164.931L390.093 142.691L394.906 142.281L397.859 153.59L398.172 155.491L398.231 155.486L398.217 153.56L399.24 141.911L404.053 141.5L405.951 163.739L402.125 164.065L401.298 154.381L401.041 148.893L400.981 148.898L400.92 150.649L399.969 161.028L397.428 161.245L394.732 151.178L394.345 149.464L394.285 149.469L394.991 154.919L395.818 164.604ZM415.582 162.916L407.034 163.646L405.135 141.407L413.564 140.688L413.86 144.155L409.347 144.54L409.837 150.279L413.812 149.94L414.098 153.288L410.122 153.627L410.651 159.815L415.284 159.419L415.582 162.916ZM419.975 162.541L416.149 162.868L414.25 140.629L418.196 140.292L421.821 150.31L422.589 152.954L422.649 152.949L422.232 149.823L421.394 140.019L425.221 139.692L427.119 161.931L423.144 162.271L419.556 152.34L418.788 149.696L418.728 149.701L419.146 152.827L419.975 162.541ZM437.976 161.005L432.775 161.449L430.876 139.21L436.077 138.765C439.694 138.457 441.495 140.501 441.875 144.955L442.643 153.952C443.021 158.376 441.593 160.696 437.976 161.005ZM435.083 142.283L436.402 157.737L437.269 157.663C438.405 157.566 438.979 156.884 438.811 154.911L437.933 144.629C437.764 142.656 437.086 142.112 435.95 142.209L435.083 142.283ZM455.147 159.538L451.172 159.878L450.372 156.152L447.054 156.436L446.897 160.243L442.892 160.585L444.431 138.052L449.811 137.593L455.147 159.538ZM447.524 145.014L447.192 153.112L449.673 152.9L447.973 144.976L447.569 142.722L447.51 142.727L447.524 145.014ZM460.448 159.086L456.532 159.42L456.004 153.233L450.897 137.5L454.962 137.153L457.317 147.099L457.501 148.197L457.561 148.192L457.586 147.076L458.22 136.875L462.256 136.53L459.92 152.898L460.448 159.086ZM473.791 158.338C470.413 158.627 468.384 157.084 468.086 153.586L467.843 150.747L471.669 150.42L471.912 153.26C471.994 154.216 472.366 155.057 473.502 154.96C474.309 154.892 474.709 154.285 474.64 153.478L474.383 150.459C474.255 148.965 473.48 148.7 471.393 147.884C468.805 146.841 467.574 145.832 467.31 143.084L467.075 140.334C466.827 137.435 468.779 135.612 471.768 135.357C475.086 135.074 477.076 136.861 477.319 140.062L477.538 142.632L473.832 142.949L473.612 140.378C473.52 139.302 473.076 138.678 472.089 138.762C471.282 138.831 470.964 139.34 471.023 140.027L471.253 142.717C471.36 143.973 472.203 144.322 473.387 144.793C476.678 145.958 478.081 147.223 478.328 150.122L478.591 153.201C478.844 156.16 476.87 158.075 473.791 158.338ZM490.676 156.505L486.7 156.845L485.901 153.119L482.583 153.402L482.426 157.209L478.421 157.551L479.959 135.019L485.34 134.559L490.676 156.505ZM483.053 141.981L482.72 150.079L485.201 149.867L483.501 141.943L483.098 139.689L483.038 139.694L483.053 141.981ZM498.984 155.796L490.914 156.485L489.015 134.246L492.931 133.911L494.528 152.623L498.683 152.269L498.984 155.796ZM507.936 155.031L499.387 155.761L497.488 133.522L505.918 132.803L506.214 136.27L501.7 136.655L502.19 142.394L506.166 142.055L506.451 145.403L502.476 145.742L503.004 151.93L507.637 151.534L507.936 155.031Z" fill="white"/>
<path d="M1020.13 111.301L1015.07 111.732L1010.36 89.7332L1014.34 89.3938L1016.99 104.553L1017.35 107.022L1017.41 107.016L1017.35 104.523L1017.36 89.136L1021.87 88.7506L1024.52 103.91L1024.88 106.378L1024.94 106.373L1024.85 103.882L1024.92 88.4903L1028.87 88.1535L1027.99 110.63L1022.93 111.061L1020.44 96.6412L1020.18 94.6462L1020.09 94.6538L1020.14 96.6667L1020.13 111.301ZM1035.65 110.367C1032.12 110.668 1030.18 108.696 1029.84 104.691L1028.92 93.9301C1028.58 89.9546 1030.16 87.6817 1033.66 87.3832C1037.16 87.0846 1039.13 89.0537 1039.47 93.0293L1040.39 103.79C1040.73 107.796 1039.15 110.068 1035.65 110.367ZM1035.35 106.87C1036.22 106.796 1036.68 106.154 1036.55 104.66L1035.54 92.823C1035.41 91.3583 1034.85 90.8039 1033.99 90.8779C1033.09 90.9544 1032.63 91.5957 1032.76 93.0603L1033.77 104.897C1033.9 106.392 1034.46 106.946 1035.35 106.87ZM1045.55 109.13L1041.72 109.457L1039.83 87.2179L1044.64 86.807L1047.59 98.1168L1047.9 100.017L1047.96 100.012L1047.95 98.0862L1048.97 86.4369L1053.79 86.026L1055.68 108.265L1051.86 108.592L1051.03 98.907L1050.77 93.4191L1050.71 93.4242L1050.65 95.1757L1049.7 105.554L1047.16 105.771L1044.46 95.704L1044.08 93.9907L1044.02 93.9958L1044.72 99.4455L1045.55 109.13ZM1065.31 107.443L1056.77 108.173L1054.87 85.9336L1063.3 85.214L1063.59 88.6813L1059.08 89.0667L1059.57 94.8058L1063.54 94.4664L1063.83 97.8142L1059.85 98.1537L1060.38 104.341L1065.02 103.946L1065.31 107.443ZM1069.71 107.068L1065.88 107.394L1063.98 85.1554L1067.93 84.8185L1071.55 94.8364L1072.32 97.4807L1072.38 97.4756L1071.96 94.3497L1071.13 84.5454L1074.95 84.2188L1076.85 106.458L1072.88 106.797L1069.29 96.8665L1068.52 94.2222L1068.46 94.2273L1068.88 97.3531L1069.71 107.068ZM1087.71 105.531L1082.51 105.975L1080.61 83.7359L1085.81 83.2918C1089.43 82.983 1091.23 85.0273 1091.61 89.4811L1092.38 98.4783C1092.75 102.902 1091.33 105.222 1087.71 105.531ZM1084.82 86.8092L1086.13 102.263L1087 102.189C1088.14 102.092 1088.71 101.411 1088.54 99.4378L1087.67 89.1552C1087.5 87.1824 1086.82 86.6382 1085.68 86.7351L1084.82 86.8092ZM1104.88 104.065L1100.9 104.404L1100.1 100.679L1096.79 100.962L1096.63 104.769L1092.62 105.111L1094.16 82.5786L1099.54 82.1192L1104.88 104.065ZM1097.26 89.5407L1096.92 97.6383L1099.41 97.4265L1097.71 89.5024L1097.3 87.2485L1097.24 87.2536L1097.26 89.5407ZM1110.18 103.612L1106.26 103.947L1105.74 97.7591L1100.63 82.0265L1104.69 81.6794L1107.05 91.6252L1107.23 92.7235L1107.29 92.7184L1107.32 91.6022L1107.95 81.4013L1111.99 81.0567L1109.65 97.4248L1110.18 103.612ZM1123.52 102.865C1120.15 103.153 1118.12 101.61 1117.82 98.1126L1117.58 95.2729L1121.4 94.9463L1121.64 97.7859C1121.73 98.7425 1122.1 99.5838 1123.23 99.4868C1124.04 99.4179 1124.44 98.8117 1124.37 98.0046L1124.12 94.9856C1123.99 93.491 1123.21 93.226 1121.13 92.4106C1118.54 91.367 1117.31 90.358 1117.04 87.6106L1116.81 84.8606C1116.56 81.9611 1118.51 80.1385 1121.5 79.8832C1124.82 79.6 1126.81 81.3872 1127.05 84.5881L1127.27 87.1588L1123.56 87.4752L1123.34 84.9046C1123.25 83.8285 1122.81 83.2041 1121.82 83.2883C1121.01 83.3572 1120.7 83.8661 1120.76 84.5536L1120.99 87.2438C1121.09 88.4992 1121.94 88.8488 1123.12 89.3198C1126.41 90.484 1127.81 91.7493 1128.06 94.6487L1128.32 97.7275C1128.58 100.687 1126.6 102.602 1123.52 102.865ZM1140.41 101.031L1136.43 101.371L1135.63 97.6454L1132.32 97.9287L1132.16 101.736L1128.15 102.078L1129.69 79.5452L1135.07 79.0859L1140.41 101.031ZM1132.79 86.5073L1132.45 94.6049L1134.93 94.3931L1133.23 86.469L1132.83 84.2152L1132.77 84.2203L1132.79 86.5073ZM1148.72 100.322L1140.65 101.011L1138.75 78.7721L1142.66 78.4378L1144.26 97.1497L1148.42 96.795L1148.72 100.322ZM1157.67 99.5578L1149.12 100.288L1147.22 78.0486L1155.65 77.329L1155.95 80.7963L1151.43 81.1817L1151.92 86.9208L1155.9 86.5814L1156.18 89.9292L1152.21 90.2686L1152.74 96.4561L1157.37 96.0606L1157.67 99.5578Z" fill="white"/>
<path d="M-117.787 208.454L-122.838 208.886L-127.547 186.887L-123.571 186.547L-120.922 201.707L-120.561 204.175L-120.501 204.17L-120.563 201.676L-120.552 186.289L-116.039 185.904L-113.39 201.064L-113.028 203.532L-112.968 203.527L-113.061 201.035L-112.99 185.644L-109.044 185.307L-109.925 207.783L-114.977 208.215L-117.473 193.795L-117.733 191.799L-117.823 191.807L-117.772 193.82L-117.787 208.454ZM-102.262 207.52C-105.789 207.821 -107.733 205.85 -108.075 201.844L-108.994 191.083C-109.334 187.108 -107.751 184.835 -104.254 184.536C-100.757 184.238 -98.782 186.207 -98.4426 190.183L-97.5238 200.943C-97.1818 204.949 -98.7642 207.222 -102.262 207.52ZM-102.56 204.023C-101.693 203.949 -101.236 203.308 -101.364 201.813L-102.374 189.976C-102.499 188.512 -103.059 187.957 -103.925 188.031C-104.822 188.108 -105.279 188.749 -105.154 190.214L-104.144 202.051C-104.016 203.545 -103.457 204.1 -102.56 204.023ZM-92.3612 206.284L-96.1873 206.61L-98.086 184.371L-93.2735 183.96L-90.3207 195.27L-90.0079 197.17L-89.9482 197.165L-89.962 195.239L-88.9393 183.59L-84.1268 183.179L-82.2281 205.418L-86.0542 205.745L-86.881 196.06L-87.1388 190.572L-87.1986 190.577L-87.2598 192.329L-88.2104 202.708L-90.7511 202.924L-93.4473 192.857L-93.8345 191.144L-93.8942 191.149L-93.1881 196.599L-92.3612 206.284ZM-72.597 204.596L-81.1459 205.326L-83.0447 183.087L-74.6153 182.367L-74.3193 185.835L-78.8329 186.22L-78.3429 191.959L-74.3673 191.62L-74.0815 194.968L-78.057 195.307L-77.5288 201.494L-72.8956 201.099L-72.597 204.596ZM-68.2042 204.221L-72.0303 204.548L-73.929 182.309L-69.9834 181.972L-66.358 191.99L-65.5903 194.634L-65.5305 194.629L-65.9479 191.503L-66.785 181.699L-62.9589 181.372L-61.0602 203.611L-65.0357 203.951L-68.6235 194.02L-69.3912 191.376L-69.451 191.381L-69.0336 194.506L-68.2042 204.221ZM-50.2033 202.684L-55.4044 203.128L-57.3032 180.889L-52.1021 180.445C-48.4852 180.136 -46.6848 182.181 -46.3046 186.634L-45.5364 195.632C-45.1587 200.056 -46.5865 202.375 -50.2033 202.684ZM-53.0965 183.962L-51.7771 199.416L-50.9102 199.342C-49.7743 199.245 -49.2002 198.564 -49.3687 196.591L-50.2466 186.309C-50.415 184.336 -51.0938 183.791 -52.2296 183.888L-53.0965 183.962ZM-33.032 201.218L-37.0075 201.558L-37.8073 197.832L-41.1253 198.115L-41.282 201.923L-45.2874 202.265L-43.7487 179.732L-38.3682 179.273L-33.032 201.218ZM-40.6552 186.694L-40.9875 194.792L-38.5066 194.58L-40.2068 186.656L-40.61 184.402L-40.6698 184.407L-40.6552 186.694ZM-27.7314 200.766L-31.6472 201.1L-32.1755 194.912L-37.2823 179.18L-33.2171 178.833L-30.8625 188.779L-30.6784 189.877L-30.6186 189.872L-30.5935 188.756L-29.959 178.555L-25.9237 178.21L-28.2597 194.578L-27.7314 200.766ZM-14.3887 200.018C-17.7664 200.306 -19.795 198.763 -20.0936 195.266L-20.3361 192.426L-16.51 192.1L-16.2675 194.939C-16.1859 195.896 -15.813 196.737 -14.6771 196.64C-13.87 196.571 -13.4701 195.965 -13.539 195.158L-13.7968 192.139C-13.9244 190.644 -14.6998 190.379 -16.7867 189.564C-19.3749 188.52 -20.6052 187.511 -20.8698 184.764L-21.1046 182.014C-21.3522 179.114 -19.4002 177.292 -16.411 177.037C-13.0931 176.753 -11.1038 178.541 -10.8607 181.741L-10.6412 184.312L-14.3477 184.629L-14.5672 182.058C-14.6591 180.982 -15.1038 180.357 -16.0902 180.442C-16.8973 180.511 -17.2151 181.019 -17.1564 181.707L-16.9267 184.397C-16.8196 185.653 -15.9768 186.002 -14.7924 186.473C-11.5014 187.637 -10.0987 188.903 -9.85116 191.802L-9.5883 194.881C-9.33564 197.84 -11.3099 199.755 -14.3887 200.018ZM2.49657 198.185L-1.47897 198.524L-2.27879 194.799L-5.59672 195.082L-5.75342 198.889L-9.75885 199.231L-8.2201 176.699L-2.83967 176.239L2.49657 198.185ZM-5.12662 183.661L-5.45897 191.758L-2.978 191.546L-4.67825 183.622L-5.08145 181.368L-5.14123 181.374L-5.12662 183.661ZM10.8047 197.475L2.73406 198.165L0.835318 175.925L4.75107 175.591L6.34867 194.303L10.5036 193.948L10.8047 197.475ZM19.7564 196.711L11.2075 197.441L9.30879 175.202L17.7381 174.482L18.0342 177.95L13.5206 178.335L14.0106 184.074L17.9861 183.735L18.272 187.083L14.2964 187.422L14.8247 193.609L19.4578 193.214L19.7564 196.711Z" fill="white"/>
<path d="M207.885 180.65L202.833 181.081L198.125 159.082L202.101 158.742L204.75 173.902L205.111 176.37L205.171 176.365L205.108 173.871L205.12 158.485L209.633 158.099L212.282 173.259L212.644 175.727L212.703 175.722L212.611 173.231L212.682 157.839L216.628 157.502L215.747 179.979L210.695 180.41L208.199 165.99L207.938 163.995L207.849 164.002L207.9 166.015L207.885 180.65ZM223.41 179.716C219.883 180.017 217.938 178.045 217.596 174.04L216.678 163.279C216.338 159.303 217.921 157.03 221.418 156.732C224.915 156.433 226.89 158.402 227.229 162.378L228.148 173.139C228.49 177.144 226.908 179.417 223.41 179.716ZM223.112 176.218C223.979 176.144 224.436 175.503 224.308 174.009L223.298 162.172C223.172 160.707 222.613 160.153 221.746 160.227C220.85 160.303 220.393 160.944 220.518 162.409L221.528 174.246C221.656 175.74 222.215 176.295 223.112 176.218ZM233.311 178.479L229.485 178.806L227.586 156.566L232.398 156.156L235.351 167.465L235.664 169.366L235.724 169.361L235.71 167.435L236.733 155.786L241.545 155.375L243.444 177.614L239.618 177.94L238.791 168.256L238.533 162.768L238.473 162.773L238.412 164.524L237.461 174.903L234.921 175.12L232.225 165.053L231.837 163.339L231.778 163.344L232.484 168.794L233.311 178.479ZM253.075 176.791L244.526 177.521L242.627 155.282L251.057 154.563L251.353 158.03L246.839 158.415L247.329 164.154L251.305 163.815L251.59 167.163L247.615 167.502L248.143 173.69L252.776 173.294L253.075 176.791ZM257.468 176.416L253.642 176.743L251.743 154.504L255.689 154.167L259.314 164.185L260.082 166.829L260.141 166.824L259.724 163.698L258.887 153.894L262.713 153.567L264.612 175.806L260.636 176.146L257.048 166.215L256.281 163.571L256.221 163.576L256.638 166.702L257.468 176.416ZM275.469 174.88L270.267 175.324L268.369 153.085L273.57 152.64C277.187 152.332 278.987 154.376 279.367 158.83L280.135 167.827C280.513 172.251 279.085 174.571 275.469 174.88ZM272.575 156.158L273.895 171.612L274.762 171.538C275.898 171.441 276.472 170.759 276.303 168.786L275.425 158.504C275.257 156.531 274.578 155.987 273.442 156.084L272.575 156.158ZM292.64 173.413L288.664 173.753L287.865 170.027L284.547 170.311L284.39 174.118L280.384 174.46L281.923 151.927L287.304 151.468L292.64 173.413ZM285.017 158.889L284.684 166.987L287.165 166.775L285.465 158.851L285.062 156.597L285.002 156.602L285.017 158.889ZM297.94 172.961L294.025 173.295L293.496 167.108L288.39 151.375L292.455 151.028L294.809 160.974L294.993 162.072L295.053 162.067L295.078 160.951L295.713 150.75L299.748 150.405L297.412 166.773L297.94 172.961ZM311.283 172.213C307.905 172.502 305.877 170.959 305.578 167.461L305.336 164.622L309.162 164.295L309.404 167.135C309.486 168.091 309.859 168.932 310.995 168.835C311.802 168.767 312.202 168.16 312.133 167.353L311.875 164.334C311.747 162.84 310.972 162.575 308.885 161.759C306.297 160.716 305.067 159.707 304.802 156.959L304.567 154.209C304.32 151.31 306.272 149.487 309.261 149.232C312.579 148.949 314.568 150.736 314.811 153.937L315.031 156.507L311.324 156.824L311.105 154.253C311.013 153.177 310.568 152.553 309.582 152.637C308.775 152.706 308.457 153.215 308.515 153.902L308.745 156.592C308.852 157.848 309.695 158.197 310.879 158.668C314.17 159.833 315.573 161.098 315.821 163.997L316.084 167.076C316.336 170.035 314.362 171.95 311.283 172.213ZM328.168 170.38L324.193 170.72L323.393 166.994L320.075 167.277L319.918 171.084L315.913 171.426L317.452 148.894L322.832 148.434L328.168 170.38ZM320.545 155.856L320.213 163.954L322.694 163.742L320.994 155.818L320.59 153.564L320.531 153.569L320.545 155.856ZM336.477 169.671L328.406 170.36L326.507 148.121L330.423 147.786L332.021 166.498L336.175 166.144L336.477 169.671ZM345.428 168.906L336.879 169.636L334.981 147.397L343.41 146.678L343.706 150.145L339.192 150.53L339.682 156.269L343.658 155.93L343.944 159.278L339.968 159.617L340.497 165.805L345.13 165.409L345.428 168.906Z" fill="white"/>
<path d="M857.621 125.175L852.57 125.606L847.861 103.607L851.837 103.268L854.486 118.427L854.847 120.896L854.907 120.89L854.845 118.397L854.856 103.01L859.369 102.625L862.018 117.784L862.38 120.252L862.439 120.247L862.347 117.756L862.418 102.364L866.364 102.027L865.483 124.504L860.431 124.935L857.935 110.515L857.675 108.52L857.585 108.528L857.636 110.541L857.621 125.175ZM873.146 124.241C869.619 124.542 867.675 122.57 867.333 118.565L866.414 107.804C866.074 103.829 867.657 101.556 871.154 101.257C874.651 100.959 876.626 102.928 876.965 106.903L877.884 117.664C878.226 121.67 876.644 123.942 873.146 124.241ZM872.848 120.744C873.715 120.67 874.172 120.029 874.044 118.534L873.034 106.697C872.909 105.232 872.349 104.678 871.483 104.752C870.586 104.828 870.129 105.47 870.254 106.934L871.264 118.771C871.392 120.266 871.951 120.82 872.848 120.744ZM883.047 123.004L879.221 123.331L877.322 101.092L882.134 100.681L885.087 111.991L885.4 113.891L885.46 113.886L885.446 111.96L886.469 100.311L891.281 99.9001L893.18 122.139L889.354 122.466L888.527 112.781L888.269 107.293L888.209 107.298L888.148 109.05L887.198 119.428L884.657 119.645L881.961 109.578L881.573 107.865L881.514 107.87L882.22 113.32L883.047 123.004ZM902.811 121.317L894.262 122.047L892.363 99.8077L900.793 99.088L901.089 102.555L896.575 102.941L897.065 108.68L901.041 108.34L901.326 111.688L897.351 112.028L897.879 118.215L902.512 117.82L902.811 121.317ZM907.204 120.942L903.378 121.268L901.479 99.0294L905.425 98.6925L909.05 108.71L909.818 111.355L909.877 111.35L909.46 108.224L908.623 98.4194L912.449 98.0928L914.348 120.332L910.372 120.671L906.784 110.741L906.017 108.096L905.957 108.101L906.374 111.227L907.204 120.942ZM925.205 119.405L920.004 119.849L918.105 97.6099L923.306 97.1658C926.923 96.857 928.723 98.9013 929.103 103.355L929.872 112.352C930.249 116.776 928.821 119.096 925.205 119.405ZM922.311 100.683L923.631 116.137L924.498 116.063C925.634 115.966 926.208 115.285 926.039 113.312L925.161 103.029C924.993 101.056 924.314 100.512 923.178 100.609L922.311 100.683ZM942.376 117.939L938.4 118.278L937.601 114.553L934.283 114.836L934.126 118.643L930.121 118.985L931.659 96.4526L937.04 95.9933L942.376 117.939ZM934.753 103.415L934.42 111.512L936.901 111.301L935.201 103.376L934.798 101.123L934.738 101.128L934.753 103.415ZM947.677 117.486L943.761 117.821L943.233 111.633L938.126 95.9005L942.191 95.5535L944.545 105.499L944.73 106.598L944.789 106.592L944.814 105.476L945.449 95.2753L949.484 94.9308L947.148 111.299L947.677 117.486ZM961.019 116.739C957.642 117.027 955.613 115.484 955.314 111.987L955.072 109.147L958.898 108.82L959.14 111.66C959.222 112.616 959.595 113.458 960.731 113.361C961.538 113.292 961.938 112.686 961.869 111.879L961.611 108.86C961.484 107.365 960.708 107.1 958.621 106.285C956.033 105.241 954.803 104.232 954.538 101.485L954.303 98.7346C954.056 95.8351 956.008 94.0125 958.997 93.7573C962.315 93.474 964.304 95.2612 964.547 98.4622L964.767 101.033L961.06 101.349L960.841 98.7786C960.749 97.7025 960.304 97.0781 959.318 97.1623C958.511 97.2312 958.193 97.7401 958.252 98.4276L958.481 101.118C958.588 102.373 959.431 102.723 960.616 103.194C963.907 104.358 965.309 105.623 965.557 108.523L965.82 111.602C966.072 114.561 964.098 116.476 961.019 116.739ZM977.905 114.905L973.929 115.245L973.129 111.519L969.811 111.803L969.655 115.61L965.649 115.952L967.188 93.4193L972.568 92.9599L977.905 114.905ZM970.281 100.381L969.949 108.479L972.43 108.267L970.73 100.343L970.327 98.0892L970.267 98.0943L970.281 100.381ZM986.213 114.196L978.142 114.885L976.243 92.6461L980.159 92.3118L981.757 111.024L985.912 110.669L986.213 114.196ZM995.164 113.432L986.615 114.162L984.717 91.9227L993.146 91.203L993.442 94.6704L988.929 95.0557L989.419 100.795L993.394 100.455L993.68 103.803L989.704 104.143L990.233 110.33L994.866 109.935L995.164 113.432Z" fill="white"/>
<path d="M532.803 152.909L527.751 153.34L523.042 131.341L527.018 131.001L529.667 146.161L530.028 148.629L530.088 148.624L530.026 146.13L530.037 130.743L534.551 130.358L537.2 145.518L537.561 147.986L537.621 147.981L537.529 145.49L537.599 130.098L541.545 129.761L540.664 152.237L535.612 152.669L533.117 138.249L532.856 136.254L532.766 136.261L532.818 138.274L532.803 152.909ZM548.328 151.974C544.801 152.276 542.856 150.304 542.514 146.298L541.595 135.538C541.256 131.562 542.838 129.289 546.335 128.991C549.833 128.692 551.807 130.661 552.147 134.637L553.066 145.398C553.408 149.403 551.825 151.676 548.328 151.974ZM548.029 148.477C548.896 148.403 549.353 147.762 549.226 146.267L548.215 134.43C548.09 132.966 547.531 132.411 546.664 132.485C545.767 132.562 545.31 133.203 545.435 134.668L546.446 146.505C546.573 147.999 547.133 148.554 548.029 148.477ZM558.228 150.738L554.402 151.064L552.503 128.825L557.316 128.414L560.269 139.724L560.581 141.624L560.641 141.619L560.627 139.694L561.65 128.044L566.463 127.633L568.361 149.873L564.535 150.199L563.708 140.514L563.451 135.026L563.391 135.032L563.33 136.783L562.379 147.162L559.838 147.379L557.142 137.311L556.755 135.598L556.695 135.603L557.401 141.053L558.228 150.738ZM577.992 149.05L569.443 149.78L567.545 127.541L575.974 126.821L576.27 130.289L571.756 130.674L572.246 136.413L576.222 136.074L576.508 139.422L572.532 139.761L573.061 145.949L577.694 145.553L577.992 149.05ZM582.385 148.675L578.559 149.002L576.66 126.763L580.606 126.426L584.231 136.444L584.999 139.088L585.059 139.083L584.641 135.957L583.804 126.153L587.63 125.826L589.529 148.065L585.554 148.405L581.966 138.474L581.198 135.83L581.138 135.835L581.556 138.961L582.385 148.675ZM600.386 147.138L595.185 147.582L593.286 125.343L598.487 124.899C602.104 124.59 603.905 126.635 604.285 131.088L605.053 140.086C605.431 144.51 604.003 146.83 600.386 147.138ZM597.493 128.417L598.812 143.87L599.679 143.796C600.815 143.699 601.389 143.018 601.221 141.045L600.343 130.763C600.174 128.79 599.496 128.246 598.36 128.343L597.493 128.417ZM617.557 145.672L613.582 146.012L612.782 142.286L609.464 142.569L609.307 146.377L605.302 146.719L606.841 124.186L612.221 123.727L617.557 145.672ZM609.934 131.148L609.602 139.246L612.083 139.034L610.383 131.11L609.979 128.856L609.92 128.861L609.934 131.148ZM622.858 145.22L618.942 145.554L618.414 139.367L613.307 123.634L617.372 123.287L619.727 133.233L619.911 134.331L619.971 134.326L619.996 133.21L620.63 123.009L624.666 122.664L622.33 139.032L622.858 145.22ZM636.201 144.472C632.823 144.76 630.794 143.217 630.496 139.72L630.253 136.88L634.079 136.554L634.322 139.393C634.403 140.35 634.776 141.191 635.912 141.094C636.719 141.025 637.119 140.419 637.05 139.612L636.793 136.593C636.665 135.098 635.89 134.833 633.803 134.018C631.214 132.974 629.984 131.965 629.72 129.218L629.485 126.468C629.237 123.569 631.189 121.746 634.178 121.491C637.496 121.207 639.486 122.995 639.729 126.196L639.948 128.766L636.242 129.083L636.022 126.512C635.93 125.436 635.486 124.812 634.499 124.896C633.692 124.965 633.374 125.474 633.433 126.161L633.663 128.851C633.77 130.107 634.613 130.456 635.797 130.927C639.088 132.091 640.491 133.357 640.738 136.256L641.001 139.335C641.254 142.294 639.279 144.209 636.201 144.472ZM653.086 142.639L649.11 142.978L648.311 139.253L644.993 139.536L644.836 143.343L640.831 143.685L642.369 121.153L647.75 120.693L653.086 142.639ZM645.463 128.115L645.13 136.212L647.611 136.001L645.911 128.076L645.508 125.823L645.448 125.828L645.463 128.115ZM661.394 141.93L653.323 142.619L651.425 120.38L655.34 120.045L656.938 138.757L661.093 138.402L661.394 141.93ZM670.346 141.165L661.797 141.895L659.898 119.656L668.327 118.936L668.624 122.404L664.11 122.789L664.6 128.528L668.575 128.189L668.861 131.537L664.886 131.876L665.414 138.064L670.047 137.668L670.346 141.165Z" fill="white"/>
<path d="M1182.53 97.4349L1177.48 97.8662L1172.77 75.867L1176.75 75.5275L1179.4 90.6871L1179.76 93.1553L1179.82 93.1502L1179.76 90.6565L1179.77 75.2698L1184.28 74.8844L1186.93 90.044L1187.29 92.5122L1187.35 92.5071L1187.26 90.0159L1187.33 74.6241L1191.28 74.2872L1190.4 96.7637L1185.34 97.195L1182.85 82.775L1182.59 80.78L1182.5 80.7876L1182.55 82.8005L1182.53 97.4349ZM1198.06 96.5008C1194.53 96.8019 1192.59 94.8302 1192.25 90.8248L1191.33 80.0639C1190.99 76.0884 1192.57 73.8155 1196.07 73.5169C1199.56 73.2184 1201.54 75.1875 1201.88 79.163L1202.8 89.9239C1203.14 93.9293 1201.56 96.2022 1198.06 96.5008ZM1197.76 93.0035C1198.63 92.9295 1199.09 92.2883 1198.96 90.7937L1197.95 78.9568C1197.82 77.4921 1197.26 76.9377 1196.4 77.0117C1195.5 77.0882 1195.04 77.7294 1195.17 79.1941L1196.18 91.031C1196.31 92.5256 1196.86 93.0801 1197.76 93.0035ZM1207.96 95.2641L1204.13 95.5907L1202.24 73.3516L1207.05 72.9408L1210 84.2506L1210.31 86.1508L1210.37 86.1457L1210.36 84.2199L1211.38 72.5707L1216.19 72.1598L1218.09 94.3989L1214.27 94.7256L1213.44 85.0408L1213.18 79.5529L1213.12 79.558L1213.06 81.3095L1212.11 91.688L1209.57 91.9049L1206.87 81.8378L1206.49 80.1245L1206.43 80.1296L1207.13 85.5793L1207.96 95.2641ZM1227.72 93.5766L1219.18 94.3065L1217.28 72.0674L1225.71 71.3478L1226 74.8151L1221.49 75.2005L1221.98 80.9396L1225.95 80.6002L1226.24 83.948L1222.26 84.2874L1222.79 90.4749L1227.43 90.0794L1227.72 93.5766ZM1232.12 93.2016L1228.29 93.5282L1226.39 71.2892L1230.34 70.9523L1233.96 80.9702L1234.73 83.6145L1234.79 83.6094L1234.37 80.4835L1233.54 70.6792L1237.36 70.3525L1239.26 92.5916L1235.29 92.9311L1231.7 83.0003L1230.93 80.356L1230.87 80.3611L1231.29 83.4869L1232.12 93.2016ZM1250.12 91.6647L1244.92 92.1088L1243.02 69.8697L1248.22 69.4256C1251.84 69.1168 1253.64 71.161 1254.02 75.6148L1254.79 84.6121C1255.16 89.036 1253.74 91.3559 1250.12 91.6647ZM1247.23 72.9429L1248.54 88.3967L1249.41 88.3227C1250.55 88.2257 1251.12 87.5444 1250.95 85.5716L1250.07 75.289C1249.91 73.3162 1249.23 72.772 1248.09 72.8689L1247.23 72.9429ZM1267.29 90.1986L1263.31 90.5381L1262.51 86.8126L1259.2 87.0959L1259.04 90.903L1255.03 91.245L1256.57 68.7124L1261.95 68.253L1267.29 90.1986ZM1259.67 75.6745L1259.33 83.7721L1261.81 83.5603L1260.11 75.6362L1259.71 73.3823L1259.65 73.3874L1259.67 75.6745ZM1272.59 89.7461L1268.67 90.0804L1268.15 83.8929L1263.04 68.1603L1267.1 67.8132L1269.46 77.759L1269.64 78.8573L1269.7 78.8522L1269.73 77.736L1270.36 67.5351L1274.4 67.1905L1272.06 83.5586L1272.59 89.7461ZM1285.93 88.9983C1282.56 89.2867 1280.53 87.7437 1280.23 84.2464L1279.99 81.4067L1283.81 81.0801L1284.05 83.9197C1284.14 84.8762 1284.51 85.7176 1285.64 85.6206C1286.45 85.5517 1286.85 84.9455 1286.78 84.1384L1286.52 81.1194C1286.4 79.6248 1285.62 79.3598 1283.53 78.5444C1280.95 77.5008 1279.72 76.4918 1279.45 73.7444L1279.22 70.9944C1278.97 68.0949 1280.92 66.2722 1283.91 66.017C1287.23 65.7338 1289.22 67.521 1289.46 70.7219L1289.68 73.2926L1285.97 73.609L1285.75 71.0384C1285.66 69.9623 1285.22 69.3379 1284.23 69.4221C1283.42 69.491 1283.11 69.9999 1283.17 70.6874L1283.39 73.3776C1283.5 74.633 1284.34 74.9826 1285.53 75.4535C1288.82 76.6178 1290.22 77.8831 1290.47 80.7825L1290.73 83.8613C1290.99 86.8206 1289.01 88.7354 1285.93 88.9983ZM1302.82 87.1652L1298.84 87.5047L1298.04 83.7792L1294.72 84.0625L1294.57 87.8696L1290.56 88.2116L1292.1 65.679L1297.48 65.2196L1302.82 87.1652ZM1295.19 72.6411L1294.86 80.7387L1297.34 80.5269L1295.64 72.6028L1295.24 70.3489L1295.18 70.354L1295.19 72.6411ZM1311.13 86.4559L1303.06 87.145L1301.16 64.9059L1305.07 64.5716L1306.67 83.2835L1310.83 82.9287L1311.13 86.4559ZM1320.08 85.6916L1311.53 86.4215L1309.63 64.1824L1318.06 63.4627L1318.36 66.9301L1313.84 67.3155L1314.33 73.0546L1318.31 72.7152L1318.59 76.063L1314.62 76.4024L1315.15 82.5899L1319.78 82.1943L1320.08 85.6916Z" fill="white"/>
<path d="M1830.84 40.9857L1825.79 41.417L1821.08 19.4178L1825.06 19.0783L1827.71 34.2379L1828.07 36.7061L1828.13 36.701L1828.07 34.2073L1828.08 18.8206L1832.59 18.4352L1835.24 33.5948L1835.6 36.063L1835.66 36.0579L1835.57 33.5667L1835.64 18.1749L1839.59 17.838L1838.7 40.3145L1833.65 40.7458L1831.16 26.3258L1830.9 24.3307L1830.81 24.3384L1830.86 26.3513L1830.84 40.9857ZM1846.37 40.0515C1842.84 40.3527 1840.9 38.381 1840.55 34.3756L1839.64 23.6147C1839.3 19.6392 1840.88 17.3663 1844.38 17.0677C1847.87 16.7691 1849.85 18.7383 1850.19 22.7138L1851.11 33.4747C1851.45 37.4801 1849.87 39.753 1846.37 40.0515ZM1846.07 36.5543C1846.94 36.4803 1847.39 35.839 1847.27 34.3445L1846.26 22.5075C1846.13 21.0429 1845.57 20.4884 1844.7 20.5624C1843.81 20.639 1843.35 21.2802 1843.48 22.7449L1844.49 34.5818C1844.61 36.0764 1845.17 36.6308 1846.07 36.5543ZM1856.27 38.8149L1852.44 39.1415L1850.54 16.9024L1855.36 16.4915L1858.31 27.8013L1858.62 29.7016L1858.68 29.6965L1858.67 27.7707L1859.69 16.1215L1864.5 15.7106L1866.4 37.9497L1862.58 38.2764L1861.75 28.5916L1861.49 23.1036L1861.43 23.1087L1861.37 24.8603L1860.42 35.2388L1857.88 35.4557L1855.18 25.3886L1854.8 23.6753L1854.74 23.6804L1855.44 29.1301L1856.27 38.8149ZM1876.03 37.1274L1867.48 37.8573L1865.59 15.6182L1874.01 14.8985L1874.31 18.3659L1869.8 18.7513L1870.29 24.4904L1874.26 24.151L1874.55 27.4988L1870.57 27.8382L1871.1 34.0257L1875.73 33.6301L1876.03 37.1274ZM1880.43 36.7524L1876.6 37.079L1874.7 14.8399L1878.65 14.5031L1882.27 24.521L1883.04 27.1652L1883.1 27.1601L1882.68 24.0343L1881.85 14.23L1885.67 13.9033L1887.57 36.1424L1883.59 36.4818L1880.01 26.5511L1879.24 23.9068L1879.18 23.9119L1879.6 27.0377L1880.43 36.7524ZM1898.43 35.2155L1893.23 35.6595L1891.33 13.4204L1896.53 12.9764C1900.14 12.6676 1901.95 14.7118 1902.33 19.1656L1903.09 28.1629C1903.47 32.5868 1902.04 34.9067 1898.43 35.2155ZM1895.53 16.4937L1896.85 31.9475L1897.72 31.8735C1898.86 31.7765 1899.43 31.0952 1899.26 29.1224L1898.38 18.8398C1898.22 16.867 1897.54 16.3227 1896.4 16.4197L1895.53 16.4937ZM1915.6 33.7494L1911.62 34.0888L1910.82 30.3634L1907.5 30.6466L1907.35 34.4538L1903.34 34.7958L1904.88 12.2632L1910.26 11.8038L1915.6 33.7494ZM1907.97 19.2253L1907.64 27.3229L1910.12 27.1111L1908.42 19.187L1908.02 16.9331L1907.96 16.9382L1907.97 19.2253ZM1920.9 33.2969L1916.98 33.6312L1916.45 27.4437L1911.35 11.7111L1915.41 11.364L1917.77 21.3098L1917.95 22.4081L1918.01 22.403L1918.04 21.2868L1918.67 11.0858L1922.71 10.7413L1920.37 27.1094L1920.9 33.2969ZM1934.24 32.5491C1930.86 32.8375 1928.84 31.2945 1928.54 27.7972L1928.29 24.9575L1932.12 24.6308L1932.36 27.4705C1932.44 28.427 1932.82 29.2684 1933.95 29.1714C1934.76 29.1025 1935.16 28.4963 1935.09 27.6892L1934.83 24.6702C1934.71 23.1756 1933.93 22.9106 1931.84 22.0952C1929.26 21.0516 1928.02 20.0426 1927.76 17.2951L1927.53 14.5451C1927.28 11.6457 1929.23 9.82303 1932.22 9.56782C1935.54 9.28454 1937.53 11.0718 1937.77 14.2727L1937.99 16.8434L1934.28 17.1598L1934.06 14.5892C1933.97 13.5131 1933.53 12.8887 1932.54 12.9729C1931.73 13.0418 1931.41 13.5507 1931.47 14.2382L1931.7 16.9284C1931.81 18.1838 1932.65 18.5334 1933.84 19.0043C1937.13 20.1686 1938.53 21.4338 1938.78 24.3333L1939.04 27.4121C1939.29 30.3713 1937.32 32.2862 1934.24 32.5491ZM1951.13 30.716L1947.15 31.0555L1946.35 27.33L1943.03 27.6133L1942.88 31.4204L1938.87 31.7624L1940.41 9.2298L1945.79 8.77042L1951.13 30.716ZM1943.5 16.1919L1943.17 24.2895L1945.65 24.0777L1943.95 16.1536L1943.55 13.8997L1943.49 13.9048L1943.5 16.1919ZM1959.43 30.0067L1951.36 30.6958L1949.47 8.45666L1953.38 8.12234L1954.98 26.8343L1959.13 26.4795L1959.43 30.0067ZM1968.39 29.2424L1959.84 29.9723L1957.94 7.73321L1966.37 7.01352L1966.66 10.4809L1962.15 10.8663L1962.64 16.6054L1966.62 16.266L1966.9 19.6138L1962.93 19.9532L1963.45 26.1407L1968.09 25.7451L1968.39 29.2424Z" fill="white"/>
<path d="M1506.02 68.7181L1500.97 69.1494L1496.26 47.1502L1500.24 46.8108L1502.89 61.9703L1503.25 64.4386L1503.31 64.4334L1503.25 61.9397L1503.26 46.553L1507.77 46.1676L1510.42 61.3272L1510.78 63.7954L1510.84 63.7903L1510.75 61.2991L1510.82 45.9073L1514.77 45.5704L1513.89 68.0469L1508.83 68.4782L1506.34 54.0582L1506.08 52.0632L1505.99 52.0708L1506.04 54.0837L1506.02 68.7181ZM1521.55 67.784C1518.02 68.0851 1516.08 66.1134 1515.74 62.108L1514.82 51.3471C1514.48 47.3716 1516.06 45.0987 1519.56 44.8001C1523.05 44.5016 1525.03 46.4707 1525.37 50.4462L1526.29 61.2071C1526.63 65.2125 1525.05 67.4854 1521.55 67.784ZM1521.25 64.2867C1522.12 64.2127 1522.58 63.5715 1522.45 62.0769L1521.44 50.24C1521.31 48.7753 1520.75 48.2209 1519.89 48.2949C1518.99 48.3714 1518.53 49.0126 1518.66 50.4773L1519.67 62.3143C1519.8 63.8088 1520.35 64.3633 1521.25 64.2867ZM1531.45 66.5473L1527.62 66.8739L1525.73 44.6348L1530.54 44.224L1533.49 55.5338L1533.8 57.434L1533.86 57.4289L1533.85 55.5031L1534.87 43.8539L1539.68 43.443L1541.58 65.6821L1537.76 66.0088L1536.93 56.324L1536.67 50.8361L1536.61 50.8412L1536.55 52.5927L1535.6 62.9712L1533.06 63.1881L1530.36 53.121L1529.98 51.4077L1529.92 51.4128L1530.62 56.8625L1531.45 66.5473ZM1551.21 64.8598L1542.67 65.5897L1540.77 43.3506L1549.2 42.631L1549.49 46.0983L1544.98 46.4837L1545.47 52.2228L1549.44 51.8834L1549.73 55.2312L1545.75 55.5706L1546.28 61.7581L1550.92 61.3626L1551.21 64.8598ZM1555.61 64.4848L1551.78 64.8114L1549.88 42.5724L1553.83 42.2355L1557.45 52.2534L1558.22 54.8977L1558.28 54.8926L1557.86 51.7667L1557.03 41.9624L1560.85 41.6357L1562.75 63.8748L1558.78 64.2143L1555.19 54.2835L1554.42 51.6392L1554.36 51.6443L1554.78 54.7701L1555.61 64.4848ZM1573.61 62.9479L1568.41 63.392L1566.51 41.1529L1571.71 40.7088C1575.33 40.4 1577.13 42.4443 1577.51 46.898L1578.27 55.8953C1578.65 60.3192 1577.22 62.6391 1573.61 62.9479ZM1570.71 44.2261L1572.03 59.6799L1572.9 59.6059C1574.04 59.5089 1574.61 58.8276 1574.44 56.8548L1573.56 46.5722C1573.4 44.5994 1572.72 44.0552 1571.58 44.1521L1570.71 44.2261ZM1590.78 61.4818L1586.8 61.8213L1586 58.0958L1582.69 58.3791L1582.53 62.1862L1578.52 62.5282L1580.06 39.9956L1585.44 39.5362L1590.78 61.4818ZM1583.16 46.9577L1582.82 55.0553L1585.3 54.8435L1583.6 46.9194L1583.2 44.6655L1583.14 44.6706L1583.16 46.9577ZM1596.08 61.0293L1592.16 61.3636L1591.64 55.1761L1586.53 39.4435L1590.59 39.0964L1592.95 49.0422L1593.13 50.1405L1593.19 50.1354L1593.22 49.0192L1593.85 38.8183L1597.89 38.4737L1595.55 54.8418L1596.08 61.0293ZM1609.42 60.2815C1606.04 60.5699 1604.02 59.0269 1603.72 55.5296L1603.48 52.6899L1607.3 52.3633L1607.54 55.2029C1607.63 56.1595 1608 57.0008 1609.13 56.9038C1609.94 56.8349 1610.34 56.2287 1610.27 55.4216L1610.01 52.4026C1609.89 50.908 1609.11 50.643 1607.02 49.8276C1604.44 48.784 1603.21 47.775 1602.94 45.0276L1602.71 42.2776C1602.46 39.3781 1604.41 37.5554 1607.4 37.3002C1610.72 37.017 1612.71 38.8042 1612.95 42.0051L1613.17 44.5758L1609.46 44.8922L1609.24 42.3216C1609.15 41.2455 1608.71 40.6211 1607.72 40.7053C1606.91 40.7742 1606.6 41.2831 1606.65 41.9706L1606.88 44.6608C1606.99 45.9162 1607.83 46.2658 1609.02 46.7368C1612.31 47.901 1613.71 49.1663 1613.96 52.0657L1614.22 55.1445C1614.48 58.1038 1612.5 60.0186 1609.42 60.2815ZM1626.31 58.4484L1622.33 58.7879L1621.53 55.0624L1618.21 55.3457L1618.06 59.1528L1614.05 59.4948L1615.59 36.9622L1620.97 36.5028L1626.31 58.4484ZM1618.68 43.9243L1618.35 52.0219L1620.83 51.8101L1619.13 43.886L1618.73 41.6321L1618.67 41.6372L1618.68 43.9243ZM1634.62 57.7391L1626.55 58.4282L1624.65 36.1891L1628.56 35.8548L1630.16 54.5667L1634.31 54.2119L1634.62 57.7391ZM1643.57 56.9748L1635.02 57.7047L1633.12 35.4656L1641.55 34.7459L1641.85 38.2133L1637.33 38.5987L1637.82 44.3378L1641.8 43.9984L1642.08 47.3462L1638.11 47.6856L1638.64 53.8731L1643.27 53.4775L1643.57 56.9748Z" fill="white"/>
<path d="M1343.52 82.5921L1338.47 83.0234L1333.76 61.0242L1337.73 60.6848L1340.38 75.8444L1340.74 78.3126L1340.8 78.3075L1340.74 75.8137L1340.75 60.427L1345.26 60.0417L1347.91 75.2012L1348.28 77.6695L1348.33 77.6643L1348.24 75.1732L1348.31 59.7813L1352.26 59.4445L1351.38 81.9209L1346.33 82.3522L1343.83 67.9322L1343.57 65.9372L1343.48 65.9448L1343.53 67.9578L1343.52 82.5921ZM1359.04 81.658C1355.51 81.9591 1353.57 79.9874 1353.23 75.982L1352.31 65.2212C1351.97 61.2456 1353.55 58.9728 1357.05 58.6742C1360.55 58.3756 1362.52 60.3447 1362.86 64.3203L1363.78 75.0811C1364.12 79.0865 1362.54 81.3594 1359.04 81.658ZM1358.74 78.1607C1359.61 78.0867 1360.07 77.4455 1359.94 75.9509L1358.93 64.114C1358.8 62.6493 1358.24 62.0949 1357.38 62.1689C1356.48 62.2455 1356.02 62.8867 1356.15 64.3513L1357.16 76.1883C1357.29 77.6828 1357.85 78.2373 1358.74 78.1607ZM1368.94 80.4213L1365.12 80.748L1363.22 58.5089L1368.03 58.098L1370.98 69.4078L1371.3 71.3081L1371.36 71.303L1371.34 69.3772L1372.36 57.7279L1377.18 57.3171L1379.08 79.5561L1375.25 79.8828L1374.42 70.198L1374.16 64.7101L1374.1 64.7152L1374.04 66.4667L1373.09 76.8452L1370.55 77.0622L1367.86 66.995L1367.47 65.2817L1367.41 65.2869L1368.12 70.7365L1368.94 80.4213ZM1388.71 78.7339L1380.16 79.4638L1378.26 57.2247L1386.69 56.505L1386.98 59.9724L1382.47 60.3577L1382.96 66.0968L1386.94 65.7574L1387.22 69.1052L1383.25 69.4447L1383.77 75.6322L1388.41 75.2366L1388.71 78.7339ZM1393.1 78.3588L1389.27 78.6855L1387.37 56.4464L1391.32 56.1095L1394.95 66.1274L1395.71 68.7717L1395.77 68.7666L1395.36 65.6408L1394.52 55.8364L1398.34 55.5098L1400.24 77.7489L1396.27 78.0883L1392.68 68.1575L1391.91 65.5132L1391.85 65.5183L1392.27 68.6441L1393.1 78.3588ZM1411.1 76.8219L1405.9 77.266L1404 55.0269L1409.2 54.5828C1412.82 54.274 1414.62 56.3183 1415 60.7721L1415.77 69.7693C1416.14 74.1932 1414.72 76.5131 1411.1 76.8219ZM1408.21 58.1002L1409.53 73.5539L1410.39 73.4799C1411.53 73.383 1412.1 72.7016 1411.93 70.7288L1411.06 60.4462C1410.89 58.4734 1410.21 57.9292 1409.07 58.0262L1408.21 58.1002ZM1428.27 75.3559L1424.3 75.6953L1423.5 71.9698L1420.18 72.2531L1420.02 76.0602L1416.02 76.4022L1417.55 53.8696L1422.94 53.4102L1428.27 75.3559ZM1420.65 60.8317L1420.32 68.9293L1422.8 68.7175L1421.1 60.7934L1420.69 58.5395L1420.63 58.5447L1420.65 60.8317ZM1433.57 74.9033L1429.66 75.2376L1429.13 69.0501L1424.02 53.3175L1428.09 52.9705L1430.44 62.9162L1430.63 64.0145L1430.68 64.0094L1430.71 62.8932L1431.34 52.6923L1435.38 52.3477L1433.04 68.7158L1433.57 74.9033ZM1446.91 74.1555C1443.54 74.4439 1441.51 72.9009 1441.21 69.4036L1440.97 66.564L1444.79 66.2373L1445.04 69.077C1445.12 70.0335 1445.49 70.8748 1446.63 70.7778C1447.43 70.7089 1447.83 70.1027 1447.76 69.2956L1447.51 66.2766C1447.38 64.7821 1446.6 64.5171 1444.52 63.7016C1441.93 62.658 1440.7 61.649 1440.43 58.9016L1440.2 56.1516C1439.95 53.2521 1441.9 51.4295 1444.89 51.1743C1448.21 50.891 1450.2 52.6782 1450.44 55.8792L1450.66 58.4498L1446.96 58.7663L1446.74 56.1956C1446.64 55.1195 1446.2 54.4951 1445.21 54.5793C1444.41 54.6482 1444.09 55.1571 1444.15 55.8446L1444.38 58.5348C1444.48 59.7902 1445.33 60.1398 1446.51 60.6108C1449.8 61.775 1451.2 63.0403 1451.45 65.9397L1451.72 69.0185C1451.97 71.9778 1449.99 73.8927 1446.91 74.1555ZM1463.8 72.3225L1459.82 72.6619L1459.02 68.9364L1455.71 69.2197L1455.55 73.0268L1451.54 73.3688L1453.08 50.8362L1458.46 50.3769L1463.8 72.3225ZM1456.18 57.7983L1455.84 65.8959L1458.33 65.6841L1456.63 57.76L1456.22 55.5062L1456.16 55.5113L1456.18 57.7983ZM1472.11 71.6131L1464.04 72.3022L1462.14 50.0631L1466.05 49.7288L1467.65 68.4407L1471.81 68.086L1472.11 71.6131ZM1481.06 70.8488L1472.51 71.5787L1470.61 49.3397L1479.04 48.62L1479.34 52.0874L1474.82 52.4727L1475.31 58.2118L1479.29 57.8724L1479.58 61.2202L1475.6 61.5597L1476.13 67.7471L1480.76 67.3516L1481.06 70.8488Z" fill="white"/>
<path d="M1668.43 54.8509L1663.38 55.2822L1658.67 33.283L1662.65 32.9436L1665.3 48.1032L1665.66 50.5714L1665.72 50.5663L1665.66 48.0725L1665.67 32.6858L1670.18 32.3004L1672.83 47.46L1673.19 49.9282L1673.25 49.9231L1673.16 47.432L1673.23 32.0401L1677.18 31.7033L1676.3 54.1797L1671.24 54.611L1668.75 40.191L1668.49 38.196L1668.4 38.2036L1668.45 40.2166L1668.43 54.8509ZM1683.96 53.9168C1680.43 54.2179 1678.49 52.2462 1678.15 48.2408L1677.23 37.4799C1676.89 33.5044 1678.47 31.2316 1681.97 30.933C1685.46 30.6344 1687.44 32.6035 1687.78 36.5791L1688.7 47.3399C1689.04 51.3453 1687.46 53.6182 1683.96 53.9168ZM1683.66 50.4195C1684.53 50.3455 1684.98 49.7043 1684.86 48.2097L1683.85 36.3728C1683.72 34.9081 1683.16 34.3537 1682.3 34.4277C1681.4 34.5042 1680.94 35.1455 1681.07 36.6101L1682.08 48.4471C1682.2 49.9416 1682.76 50.4961 1683.66 50.4195ZM1693.86 52.6801L1690.03 53.0068L1688.13 30.7677L1692.95 30.3568L1695.9 41.6666L1696.21 43.5669L1696.27 43.5618L1696.26 41.636L1697.28 29.9867L1702.09 29.5758L1703.99 51.8149L1700.17 52.1416L1699.34 42.4568L1699.08 36.9689L1699.02 36.974L1698.96 38.7255L1698.01 49.104L1695.47 49.3209L1692.77 39.2538L1692.39 37.5405L1692.33 37.5456L1693.03 42.9953L1693.86 52.6801ZM1713.62 50.9926L1705.08 51.7225L1703.18 29.4835L1711.61 28.7638L1711.9 32.2312L1707.39 32.6165L1707.88 38.3556L1711.85 38.0162L1712.14 41.364L1708.16 41.7035L1708.69 47.8909L1713.33 47.4954L1713.62 50.9926ZM1718.02 50.6176L1714.19 50.9443L1712.29 28.7052L1716.24 28.3683L1719.86 38.3862L1720.63 41.0305L1720.69 41.0254L1720.27 37.8996L1719.44 28.0952L1723.26 27.7686L1725.16 50.0076L1721.19 50.3471L1717.6 40.4163L1716.83 37.772L1716.77 37.7771L1717.19 40.9029L1718.02 50.6176ZM1736.02 49.0807L1730.82 49.5248L1728.92 27.2857L1734.12 26.8416C1737.74 26.5328 1739.54 28.5771 1739.92 33.0309L1740.68 42.0281C1741.06 46.452 1739.63 48.7719 1736.02 49.0807ZM1733.12 30.359L1734.44 45.8127L1735.31 45.7387C1736.45 45.6417 1737.02 44.9604 1736.85 42.9876L1735.97 32.705C1735.81 30.7322 1735.13 30.188 1733.99 30.2849L1733.12 30.359ZM1753.19 47.6146L1749.21 47.9541L1748.41 44.2286L1745.1 44.5119L1744.94 48.319L1740.93 48.661L1742.47 26.1284L1747.85 25.669L1753.19 47.6146ZM1745.57 33.0905L1745.23 41.1881L1747.71 40.9763L1746.01 33.0522L1745.61 30.7983L1745.55 30.8034L1745.57 33.0905ZM1758.49 47.1621L1754.57 47.4964L1754.05 41.3089L1748.94 25.5763L1753 25.2292L1755.36 35.175L1755.54 36.2733L1755.6 36.2682L1755.63 35.152L1756.26 24.9511L1760.3 24.6065L1757.96 40.9746L1758.49 47.1621ZM1771.83 46.4143C1768.45 46.7027 1766.43 45.1597 1766.13 41.6624L1765.88 38.8227L1769.71 38.4961L1769.95 41.3357C1770.04 42.2923 1770.41 43.1336 1771.54 43.0366C1772.35 42.9677 1772.75 42.3615 1772.68 41.5544L1772.42 38.5354C1772.3 37.0408 1771.52 36.7758 1769.43 35.9604C1766.85 34.9168 1765.62 33.9078 1765.35 31.1604L1765.12 28.4104C1764.87 25.5109 1766.82 23.6883 1769.81 23.4331C1773.13 23.1498 1775.12 24.937 1775.36 28.1379L1775.58 30.7086L1771.87 31.025L1771.65 28.4544C1771.56 27.3783 1771.12 26.7539 1770.13 26.8381C1769.32 26.907 1769.01 27.4159 1769.06 28.1034L1769.29 30.7936C1769.4 32.049 1770.24 32.3986 1771.43 32.8696C1774.72 34.0338 1776.12 35.2991 1776.37 38.1985L1776.63 41.2773C1776.89 44.2366 1774.91 46.1515 1771.83 46.4143ZM1788.72 44.5813L1784.74 44.9207L1783.94 41.1952L1780.62 41.4785L1780.47 45.2856L1776.46 45.6276L1778 23.095L1783.38 22.6357L1788.72 44.5813ZM1781.09 30.0571L1780.76 38.1547L1783.24 37.9429L1781.54 30.0188L1781.14 27.765L1781.08 27.7701L1781.09 30.0571ZM1797.03 43.8719L1788.96 44.561L1787.06 22.3219L1790.97 21.9876L1792.57 40.6995L1796.72 40.3448L1797.03 43.8719ZM1805.98 43.1076L1797.43 43.8375L1795.53 21.5984L1803.96 20.8788L1804.26 24.3461L1799.74 24.7315L1800.23 30.4706L1804.21 30.1312L1804.49 33.479L1800.52 33.8184L1801.05 40.0059L1805.68 39.6104L1805.98 43.1076Z" fill="white"/>
</g>
<defs>
<filter id="filter0_d_2002_279" x="-38.8281" y="46.9365" width="1920.73" height="186.017" filterUnits="userSpaceOnUse" color-interpolation-filters="sRGB">
<feFlood flood-opacity="0" result="BackgroundImageFix"/>
<feColorMatrix in="SourceAlpha" type="matrix" values="0 0 0 0 0 0 0 0 0 0 0 0 0 0 0 0 0 0 127 0" result="hardAlpha"/>
<feOffset dy="4"/>
<feGaussianBlur stdDeviation="10"/>
<feComposite in2="hardAlpha" operator="out"/>
<feColorMatrix type="matrix" values="0 0 0 0 0 0 0 0 0 0 0 0 0 0 0 0 0 0 0.25 0"/>
<feBlend mode="normal" in2="BackgroundImageFix" result="effect1_dropShadow_2002_279"/>
<feBlend mode="normal" in="SourceGraphic" in2="effect1_dropShadow_2002_279" result="shape"/>
</filter>
<linearGradient id="paint0_linear_2002_279" x1="491.025" y1="190.309" x2="1219.54" y2="180.099" gradientUnits="userSpaceOnUse">
<stop offset="0.151" stop-color="#FF4051"/>
<stop offset="1" stop-color="#040404"/>
</linearGradient>
<clipPath id="clip0_2002_279">
<rect width="1966.36" height="41.1307" fill="white" transform="translate(-18.8281 167.972) rotate(-4.88)"/>
</clipPath>
</defs>
</svg>
