<svg width="27" height="26" viewBox="0 0 27 26" fill="none" xmlns="http://www.w3.org/2000/svg">
<rect width="25.8956" height="25.1109" transform="translate(0.727539 0.792969)" fill="black"/>
<path fill-rule="evenodd" clip-rule="evenodd" d="M8.51942 3.93219H18.8328C20.9688 3.93219 22.7003 5.66371 22.7003 7.79975V18.1131C22.7003 20.2491 20.9688 21.9807 18.8328 21.9807H8.51942C6.38338 21.9807 4.65186 20.2491 4.65186 18.1131V7.79975C4.65186 5.66371 6.38338 3.93219 8.51942 3.93219ZM18.8328 8.65916C18.8328 9.13383 18.448 9.51864 17.9733 9.51864C17.4987 9.51864 17.1139 9.13383 17.1139 8.65916C17.1139 8.18448 17.4987 7.79975 17.9733 7.79975C18.448 7.79975 18.8328 8.18448 18.8328 8.65916ZM10.6508 12.9048C12.2931 12.9048 13.6245 11.5735 13.6245 9.93112C13.6245 8.28886 12.2931 6.95749 10.6508 6.95749C9.00853 6.95749 7.67715 8.28886 7.67715 9.93112C7.67715 11.5735 9.00853 12.9048 10.6508 12.9048ZM19.6235 15.9301C19.6235 17.5725 18.2921 18.9038 16.6498 18.9038C15.0075 18.9038 13.6761 17.5725 13.6761 15.9301C13.6761 14.2878 15.0075 12.9564 16.6498 12.9564C18.2921 12.9564 19.6235 14.2878 19.6235 15.9301Z" fill="white"/>
</svg>
