<svg width="26" height="21" viewBox="0 0 26 21" fill="none" xmlns="http://www.w3.org/2000/svg">
<path d="M5.08426 8.8447C9.90547 6.83817 13.1203 5.51533 14.7289 4.87618C19.3217 3.05127 20.2761 2.73427 20.8981 2.72374C21.0349 2.72152 21.3408 2.75391 21.5389 2.90753C21.7063 3.0372 21.7523 3.21238 21.7743 3.33535C21.7964 3.45831 21.8238 3.73844 21.802 3.95727C21.5531 6.45537 20.4762 12.5176 19.9283 15.3155C19.6964 16.4994 19.24 16.8963 18.7981 16.9352C17.8377 17.0196 17.1083 16.3289 16.1782 15.7464C14.7226 14.8349 13.9003 14.2675 12.4875 13.3781C10.8546 12.3503 11.9131 11.7853 12.8437 10.8621C13.0871 10.6204 17.3187 6.94365 17.4006 6.61013C17.4109 6.5684 17.4204 6.41293 17.3236 6.33085C17.2269 6.24871 17.0842 6.27679 16.9812 6.29912C16.8352 6.33079 14.51 7.79899 10.0054 10.7036C9.34535 11.1366 8.74751 11.3476 8.21187 11.3365C7.6214 11.3243 6.48553 11.0176 5.64115 10.7554C4.60544 10.4338 3.78228 10.2637 3.85396 9.71757C3.89129 9.43308 4.3014 9.14212 5.08426 8.8447Z" fill="white"/>
</svg>
